<?xml version="1.0" encoding="utf-8" standalone="no"?>
<!DOCTYPE svg PUBLIC "-//W3C//DTD SVG 1.1//EN"
  "http://www.w3.org/Graphics/SVG/1.1/DTD/svg11.dtd">
<svg xmlns:xlink="http://www.w3.org/1999/xlink" width="720pt" height="432pt" viewBox="0 0 720 432" xmlns="http://www.w3.org/2000/svg" version="1.1">
 <metadata>
  <rdf:RDF xmlns:dc="http://purl.org/dc/elements/1.1/" xmlns:cc="http://creativecommons.org/ns#" xmlns:rdf="http://www.w3.org/1999/02/22-rdf-syntax-ns#">
   <cc:Work>
    <dc:type rdf:resource="http://purl.org/dc/dcmitype/StillImage"/>
    <dc:date>2025-04-09T15:44:57.720247</dc:date>
    <dc:format>image/svg+xml</dc:format>
    <dc:creator>
     <cc:Agent>
      <dc:title>Matplotlib v3.10.0, https://matplotlib.org/</dc:title>
     </cc:Agent>
    </dc:creator>
   </cc:Work>
  </rdf:RDF>
 </metadata>
 <defs>
  <style type="text/css">*{stroke-linejoin: round; stroke-linecap: butt}</style>
 </defs>
 <g id="figure_1">
  <g id="patch_1">
   <path d="M 0 432 
L 720 432 
L 720 0 
L 0 0 
z
" style="fill: #ffffff"/>
  </g>
  <g id="axes_1">
   <g id="patch_2">
    <path d="M 90 384.48 
L 648 384.48 
L 648 51.84 
L 90 51.84 
z
" style="fill: #ffffff"/>
   </g>
   <g id="matplotlib.axis_1">
    <g id="xtick_1">
     <g id="line2d_1">
      <defs>
       <path id="m6493d18dd2" d="M 0 0 
L 0 3.5 
" style="stroke: #000000; stroke-width: 0.8"/>
      </defs>
      <g>
       <use xlink:href="#m6493d18dd2" x="115.363636" y="384.48" style="stroke: #000000; stroke-width: 0.8"/>
      </g>
     </g>
     <g id="text_1">
      <!-- 0 -->
      <g transform="translate(112.182386 399.078438) scale(0.1 -0.1)">
       <defs>
        <path id="DejaVuSans-30" d="M 2034 4250 
Q 1547 4250 1301 3770 
Q 1056 3291 1056 2328 
Q 1056 1369 1301 889 
Q 1547 409 2034 409 
Q 2525 409 2770 889 
Q 3016 1369 3016 2328 
Q 3016 3291 2770 3770 
Q 2525 4250 2034 4250 
z
M 2034 4750 
Q 2819 4750 3233 4129 
Q 3647 3509 3647 2328 
Q 3647 1150 3233 529 
Q 2819 -91 2034 -91 
Q 1250 -91 836 529 
Q 422 1150 422 2328 
Q 422 3509 836 4129 
Q 1250 4750 2034 4750 
z
" transform="scale(0.015625)"/>
       </defs>
       <use xlink:href="#DejaVuSans-30"/>
      </g>
     </g>
    </g>
    <g id="xtick_2">
     <g id="line2d_2">
      <g>
       <use xlink:href="#m6493d18dd2" x="185.818182" y="384.48" style="stroke: #000000; stroke-width: 0.8"/>
      </g>
     </g>
     <g id="text_2">
      <!-- 50 -->
      <g transform="translate(179.455682 399.078438) scale(0.1 -0.1)">
       <defs>
        <path id="DejaVuSans-35" d="M 691 4666 
L 3169 4666 
L 3169 4134 
L 1269 4134 
L 1269 2991 
Q 1406 3038 1543 3061 
Q 1681 3084 1819 3084 
Q 2600 3084 3056 2656 
Q 3513 2228 3513 1497 
Q 3513 744 3044 326 
Q 2575 -91 1722 -91 
Q 1428 -91 1123 -41 
Q 819 9 494 109 
L 494 744 
Q 775 591 1075 516 
Q 1375 441 1709 441 
Q 2250 441 2565 725 
Q 2881 1009 2881 1497 
Q 2881 1984 2565 2268 
Q 2250 2553 1709 2553 
Q 1456 2553 1204 2497 
Q 953 2441 691 2322 
L 691 4666 
z
" transform="scale(0.015625)"/>
       </defs>
       <use xlink:href="#DejaVuSans-35"/>
       <use xlink:href="#DejaVuSans-30" transform="translate(63.623047 0)"/>
      </g>
     </g>
    </g>
    <g id="xtick_3">
     <g id="line2d_3">
      <g>
       <use xlink:href="#m6493d18dd2" x="256.272727" y="384.48" style="stroke: #000000; stroke-width: 0.8"/>
      </g>
     </g>
     <g id="text_3">
      <!-- 100 -->
      <g transform="translate(246.728977 399.078438) scale(0.1 -0.1)">
       <defs>
        <path id="DejaVuSans-31" d="M 794 531 
L 1825 531 
L 1825 4091 
L 703 3866 
L 703 4441 
L 1819 4666 
L 2450 4666 
L 2450 531 
L 3481 531 
L 3481 0 
L 794 0 
L 794 531 
z
" transform="scale(0.015625)"/>
       </defs>
       <use xlink:href="#DejaVuSans-31"/>
       <use xlink:href="#DejaVuSans-30" transform="translate(63.623047 0)"/>
       <use xlink:href="#DejaVuSans-30" transform="translate(127.246094 0)"/>
      </g>
     </g>
    </g>
    <g id="xtick_4">
     <g id="line2d_4">
      <g>
       <use xlink:href="#m6493d18dd2" x="326.727273" y="384.48" style="stroke: #000000; stroke-width: 0.8"/>
      </g>
     </g>
     <g id="text_4">
      <!-- 150 -->
      <g transform="translate(317.183523 399.078438) scale(0.1 -0.1)">
       <use xlink:href="#DejaVuSans-31"/>
       <use xlink:href="#DejaVuSans-35" transform="translate(63.623047 0)"/>
       <use xlink:href="#DejaVuSans-30" transform="translate(127.246094 0)"/>
      </g>
     </g>
    </g>
    <g id="xtick_5">
     <g id="line2d_5">
      <g>
       <use xlink:href="#m6493d18dd2" x="397.181818" y="384.48" style="stroke: #000000; stroke-width: 0.8"/>
      </g>
     </g>
     <g id="text_5">
      <!-- 200 -->
      <g transform="translate(387.638068 399.078438) scale(0.1 -0.1)">
       <defs>
        <path id="DejaVuSans-32" d="M 1228 531 
L 3431 531 
L 3431 0 
L 469 0 
L 469 531 
Q 828 903 1448 1529 
Q 2069 2156 2228 2338 
Q 2531 2678 2651 2914 
Q 2772 3150 2772 3378 
Q 2772 3750 2511 3984 
Q 2250 4219 1831 4219 
Q 1534 4219 1204 4116 
Q 875 4013 500 3803 
L 500 4441 
Q 881 4594 1212 4672 
Q 1544 4750 1819 4750 
Q 2544 4750 2975 4387 
Q 3406 4025 3406 3419 
Q 3406 3131 3298 2873 
Q 3191 2616 2906 2266 
Q 2828 2175 2409 1742 
Q 1991 1309 1228 531 
z
" transform="scale(0.015625)"/>
       </defs>
       <use xlink:href="#DejaVuSans-32"/>
       <use xlink:href="#DejaVuSans-30" transform="translate(63.623047 0)"/>
       <use xlink:href="#DejaVuSans-30" transform="translate(127.246094 0)"/>
      </g>
     </g>
    </g>
    <g id="xtick_6">
     <g id="line2d_6">
      <g>
       <use xlink:href="#m6493d18dd2" x="467.636364" y="384.48" style="stroke: #000000; stroke-width: 0.8"/>
      </g>
     </g>
     <g id="text_6">
      <!-- 250 -->
      <g transform="translate(458.092614 399.078438) scale(0.1 -0.1)">
       <use xlink:href="#DejaVuSans-32"/>
       <use xlink:href="#DejaVuSans-35" transform="translate(63.623047 0)"/>
       <use xlink:href="#DejaVuSans-30" transform="translate(127.246094 0)"/>
      </g>
     </g>
    </g>
    <g id="xtick_7">
     <g id="line2d_7">
      <g>
       <use xlink:href="#m6493d18dd2" x="538.090909" y="384.48" style="stroke: #000000; stroke-width: 0.8"/>
      </g>
     </g>
     <g id="text_7">
      <!-- 300 -->
      <g transform="translate(528.547159 399.078438) scale(0.1 -0.1)">
       <defs>
        <path id="DejaVuSans-33" d="M 2597 2516 
Q 3050 2419 3304 2112 
Q 3559 1806 3559 1356 
Q 3559 666 3084 287 
Q 2609 -91 1734 -91 
Q 1441 -91 1130 -33 
Q 819 25 488 141 
L 488 750 
Q 750 597 1062 519 
Q 1375 441 1716 441 
Q 2309 441 2620 675 
Q 2931 909 2931 1356 
Q 2931 1769 2642 2001 
Q 2353 2234 1838 2234 
L 1294 2234 
L 1294 2753 
L 1863 2753 
Q 2328 2753 2575 2939 
Q 2822 3125 2822 3475 
Q 2822 3834 2567 4026 
Q 2313 4219 1838 4219 
Q 1578 4219 1281 4162 
Q 984 4106 628 3988 
L 628 4550 
Q 988 4650 1302 4700 
Q 1616 4750 1894 4750 
Q 2613 4750 3031 4423 
Q 3450 4097 3450 3541 
Q 3450 3153 3228 2886 
Q 3006 2619 2597 2516 
z
" transform="scale(0.015625)"/>
       </defs>
       <use xlink:href="#DejaVuSans-33"/>
       <use xlink:href="#DejaVuSans-30" transform="translate(63.623047 0)"/>
       <use xlink:href="#DejaVuSans-30" transform="translate(127.246094 0)"/>
      </g>
     </g>
    </g>
    <g id="xtick_8">
     <g id="line2d_8">
      <g>
       <use xlink:href="#m6493d18dd2" x="608.545455" y="384.48" style="stroke: #000000; stroke-width: 0.8"/>
      </g>
     </g>
     <g id="text_8">
      <!-- 350 -->
      <g transform="translate(599.001705 399.078438) scale(0.1 -0.1)">
       <use xlink:href="#DejaVuSans-33"/>
       <use xlink:href="#DejaVuSans-35" transform="translate(63.623047 0)"/>
       <use xlink:href="#DejaVuSans-30" transform="translate(127.246094 0)"/>
      </g>
     </g>
    </g>
    <g id="text_9">
     <!-- Phi (degrees) -->
     <g transform="translate(335.810938 412.756563) scale(0.1 -0.1)">
      <defs>
       <path id="DejaVuSans-50" d="M 1259 4147 
L 1259 2394 
L 2053 2394 
Q 2494 2394 2734 2622 
Q 2975 2850 2975 3272 
Q 2975 3691 2734 3919 
Q 2494 4147 2053 4147 
L 1259 4147 
z
M 628 4666 
L 2053 4666 
Q 2838 4666 3239 4311 
Q 3641 3956 3641 3272 
Q 3641 2581 3239 2228 
Q 2838 1875 2053 1875 
L 1259 1875 
L 1259 0 
L 628 0 
L 628 4666 
z
" transform="scale(0.015625)"/>
       <path id="DejaVuSans-68" d="M 3513 2113 
L 3513 0 
L 2938 0 
L 2938 2094 
Q 2938 2591 2744 2837 
Q 2550 3084 2163 3084 
Q 1697 3084 1428 2787 
Q 1159 2491 1159 1978 
L 1159 0 
L 581 0 
L 581 4863 
L 1159 4863 
L 1159 2956 
Q 1366 3272 1645 3428 
Q 1925 3584 2291 3584 
Q 2894 3584 3203 3211 
Q 3513 2838 3513 2113 
z
" transform="scale(0.015625)"/>
       <path id="DejaVuSans-69" d="M 603 3500 
L 1178 3500 
L 1178 0 
L 603 0 
L 603 3500 
z
M 603 4863 
L 1178 4863 
L 1178 4134 
L 603 4134 
L 603 4863 
z
" transform="scale(0.015625)"/>
       <path id="DejaVuSans-20" transform="scale(0.015625)"/>
       <path id="DejaVuSans-28" d="M 1984 4856 
Q 1566 4138 1362 3434 
Q 1159 2731 1159 2009 
Q 1159 1288 1364 580 
Q 1569 -128 1984 -844 
L 1484 -844 
Q 1016 -109 783 600 
Q 550 1309 550 2009 
Q 550 2706 781 3412 
Q 1013 4119 1484 4856 
L 1984 4856 
z
" transform="scale(0.015625)"/>
       <path id="DejaVuSans-64" d="M 2906 2969 
L 2906 4863 
L 3481 4863 
L 3481 0 
L 2906 0 
L 2906 525 
Q 2725 213 2448 61 
Q 2172 -91 1784 -91 
Q 1150 -91 751 415 
Q 353 922 353 1747 
Q 353 2572 751 3078 
Q 1150 3584 1784 3584 
Q 2172 3584 2448 3432 
Q 2725 3281 2906 2969 
z
M 947 1747 
Q 947 1113 1208 752 
Q 1469 391 1925 391 
Q 2381 391 2643 752 
Q 2906 1113 2906 1747 
Q 2906 2381 2643 2742 
Q 2381 3103 1925 3103 
Q 1469 3103 1208 2742 
Q 947 2381 947 1747 
z
" transform="scale(0.015625)"/>
       <path id="DejaVuSans-65" d="M 3597 1894 
L 3597 1613 
L 953 1613 
Q 991 1019 1311 708 
Q 1631 397 2203 397 
Q 2534 397 2845 478 
Q 3156 559 3463 722 
L 3463 178 
Q 3153 47 2828 -22 
Q 2503 -91 2169 -91 
Q 1331 -91 842 396 
Q 353 884 353 1716 
Q 353 2575 817 3079 
Q 1281 3584 2069 3584 
Q 2775 3584 3186 3129 
Q 3597 2675 3597 1894 
z
M 3022 2063 
Q 3016 2534 2758 2815 
Q 2500 3097 2075 3097 
Q 1594 3097 1305 2825 
Q 1016 2553 972 2059 
L 3022 2063 
z
" transform="scale(0.015625)"/>
       <path id="DejaVuSans-67" d="M 2906 1791 
Q 2906 2416 2648 2759 
Q 2391 3103 1925 3103 
Q 1463 3103 1205 2759 
Q 947 2416 947 1791 
Q 947 1169 1205 825 
Q 1463 481 1925 481 
Q 2391 481 2648 825 
Q 2906 1169 2906 1791 
z
M 3481 434 
Q 3481 -459 3084 -895 
Q 2688 -1331 1869 -1331 
Q 1566 -1331 1297 -1286 
Q 1028 -1241 775 -1147 
L 775 -588 
Q 1028 -725 1275 -790 
Q 1522 -856 1778 -856 
Q 2344 -856 2625 -561 
Q 2906 -266 2906 331 
L 2906 616 
Q 2728 306 2450 153 
Q 2172 0 1784 0 
Q 1141 0 747 490 
Q 353 981 353 1791 
Q 353 2603 747 3093 
Q 1141 3584 1784 3584 
Q 2172 3584 2450 3431 
Q 2728 3278 2906 2969 
L 2906 3500 
L 3481 3500 
L 3481 434 
z
" transform="scale(0.015625)"/>
       <path id="DejaVuSans-72" d="M 2631 2963 
Q 2534 3019 2420 3045 
Q 2306 3072 2169 3072 
Q 1681 3072 1420 2755 
Q 1159 2438 1159 1844 
L 1159 0 
L 581 0 
L 581 3500 
L 1159 3500 
L 1159 2956 
Q 1341 3275 1631 3429 
Q 1922 3584 2338 3584 
Q 2397 3584 2469 3576 
Q 2541 3569 2628 3553 
L 2631 2963 
z
" transform="scale(0.015625)"/>
       <path id="DejaVuSans-73" d="M 2834 3397 
L 2834 2853 
Q 2591 2978 2328 3040 
Q 2066 3103 1784 3103 
Q 1356 3103 1142 2972 
Q 928 2841 928 2578 
Q 928 2378 1081 2264 
Q 1234 2150 1697 2047 
L 1894 2003 
Q 2506 1872 2764 1633 
Q 3022 1394 3022 966 
Q 3022 478 2636 193 
Q 2250 -91 1575 -91 
Q 1294 -91 989 -36 
Q 684 19 347 128 
L 347 722 
Q 666 556 975 473 
Q 1284 391 1588 391 
Q 1994 391 2212 530 
Q 2431 669 2431 922 
Q 2431 1156 2273 1281 
Q 2116 1406 1581 1522 
L 1381 1569 
Q 847 1681 609 1914 
Q 372 2147 372 2553 
Q 372 3047 722 3315 
Q 1072 3584 1716 3584 
Q 2034 3584 2315 3537 
Q 2597 3491 2834 3397 
z
" transform="scale(0.015625)"/>
       <path id="DejaVuSans-29" d="M 513 4856 
L 1013 4856 
Q 1481 4119 1714 3412 
Q 1947 2706 1947 2009 
Q 1947 1309 1714 600 
Q 1481 -109 1013 -844 
L 513 -844 
Q 928 -128 1133 580 
Q 1338 1288 1338 2009 
Q 1338 2731 1133 3434 
Q 928 4138 513 4856 
z
" transform="scale(0.015625)"/>
      </defs>
      <use xlink:href="#DejaVuSans-50"/>
      <use xlink:href="#DejaVuSans-68" transform="translate(60.302734 0)"/>
      <use xlink:href="#DejaVuSans-69" transform="translate(123.681641 0)"/>
      <use xlink:href="#DejaVuSans-20" transform="translate(151.464844 0)"/>
      <use xlink:href="#DejaVuSans-28" transform="translate(183.251953 0)"/>
      <use xlink:href="#DejaVuSans-64" transform="translate(222.265625 0)"/>
      <use xlink:href="#DejaVuSans-65" transform="translate(285.742188 0)"/>
      <use xlink:href="#DejaVuSans-67" transform="translate(347.265625 0)"/>
      <use xlink:href="#DejaVuSans-72" transform="translate(410.742188 0)"/>
      <use xlink:href="#DejaVuSans-65" transform="translate(449.605469 0)"/>
      <use xlink:href="#DejaVuSans-65" transform="translate(511.128906 0)"/>
      <use xlink:href="#DejaVuSans-73" transform="translate(572.652344 0)"/>
      <use xlink:href="#DejaVuSans-29" transform="translate(624.751953 0)"/>
     </g>
    </g>
   </g>
   <g id="matplotlib.axis_2">
    <g id="ytick_1">
     <g id="line2d_9">
      <defs>
       <path id="m62f578b039" d="M 0 0 
L -3.5 0 
" style="stroke: #000000; stroke-width: 0.8"/>
      </defs>
      <g>
       <use xlink:href="#m62f578b039" x="90" y="373.340856" style="stroke: #000000; stroke-width: 0.8"/>
      </g>
     </g>
     <g id="text_10">
      <!-- −120 -->
      <g transform="translate(55.532812 377.140075) scale(0.1 -0.1)">
       <defs>
        <path id="DejaVuSans-2212" d="M 678 2272 
L 4684 2272 
L 4684 1741 
L 678 1741 
L 678 2272 
z
" transform="scale(0.015625)"/>
       </defs>
       <use xlink:href="#DejaVuSans-2212"/>
       <use xlink:href="#DejaVuSans-31" transform="translate(83.789062 0)"/>
       <use xlink:href="#DejaVuSans-32" transform="translate(147.412109 0)"/>
       <use xlink:href="#DejaVuSans-30" transform="translate(211.035156 0)"/>
      </g>
     </g>
    </g>
    <g id="ytick_2">
     <g id="line2d_10">
      <g>
       <use xlink:href="#m62f578b039" x="90" y="328.149544" style="stroke: #000000; stroke-width: 0.8"/>
      </g>
     </g>
     <g id="text_11">
      <!-- −100 -->
      <g transform="translate(55.532812 331.948763) scale(0.1 -0.1)">
       <use xlink:href="#DejaVuSans-2212"/>
       <use xlink:href="#DejaVuSans-31" transform="translate(83.789062 0)"/>
       <use xlink:href="#DejaVuSans-30" transform="translate(147.412109 0)"/>
       <use xlink:href="#DejaVuSans-30" transform="translate(211.035156 0)"/>
      </g>
     </g>
    </g>
    <g id="ytick_3">
     <g id="line2d_11">
      <g>
       <use xlink:href="#m62f578b039" x="90" y="282.958233" style="stroke: #000000; stroke-width: 0.8"/>
      </g>
     </g>
     <g id="text_12">
      <!-- −80 -->
      <g transform="translate(61.895313 286.757452) scale(0.1 -0.1)">
       <defs>
        <path id="DejaVuSans-38" d="M 2034 2216 
Q 1584 2216 1326 1975 
Q 1069 1734 1069 1313 
Q 1069 891 1326 650 
Q 1584 409 2034 409 
Q 2484 409 2743 651 
Q 3003 894 3003 1313 
Q 3003 1734 2745 1975 
Q 2488 2216 2034 2216 
z
M 1403 2484 
Q 997 2584 770 2862 
Q 544 3141 544 3541 
Q 544 4100 942 4425 
Q 1341 4750 2034 4750 
Q 2731 4750 3128 4425 
Q 3525 4100 3525 3541 
Q 3525 3141 3298 2862 
Q 3072 2584 2669 2484 
Q 3125 2378 3379 2068 
Q 3634 1759 3634 1313 
Q 3634 634 3220 271 
Q 2806 -91 2034 -91 
Q 1263 -91 848 271 
Q 434 634 434 1313 
Q 434 1759 690 2068 
Q 947 2378 1403 2484 
z
M 1172 3481 
Q 1172 3119 1398 2916 
Q 1625 2713 2034 2713 
Q 2441 2713 2670 2916 
Q 2900 3119 2900 3481 
Q 2900 3844 2670 4047 
Q 2441 4250 2034 4250 
Q 1625 4250 1398 4047 
Q 1172 3844 1172 3481 
z
" transform="scale(0.015625)"/>
       </defs>
       <use xlink:href="#DejaVuSans-2212"/>
       <use xlink:href="#DejaVuSans-38" transform="translate(83.789062 0)"/>
       <use xlink:href="#DejaVuSans-30" transform="translate(147.412109 0)"/>
      </g>
     </g>
    </g>
    <g id="ytick_4">
     <g id="line2d_12">
      <g>
       <use xlink:href="#m62f578b039" x="90" y="237.766921" style="stroke: #000000; stroke-width: 0.8"/>
      </g>
     </g>
     <g id="text_13">
      <!-- −60 -->
      <g transform="translate(61.895313 241.56614) scale(0.1 -0.1)">
       <defs>
        <path id="DejaVuSans-36" d="M 2113 2584 
Q 1688 2584 1439 2293 
Q 1191 2003 1191 1497 
Q 1191 994 1439 701 
Q 1688 409 2113 409 
Q 2538 409 2786 701 
Q 3034 994 3034 1497 
Q 3034 2003 2786 2293 
Q 2538 2584 2113 2584 
z
M 3366 4563 
L 3366 3988 
Q 3128 4100 2886 4159 
Q 2644 4219 2406 4219 
Q 1781 4219 1451 3797 
Q 1122 3375 1075 2522 
Q 1259 2794 1537 2939 
Q 1816 3084 2150 3084 
Q 2853 3084 3261 2657 
Q 3669 2231 3669 1497 
Q 3669 778 3244 343 
Q 2819 -91 2113 -91 
Q 1303 -91 875 529 
Q 447 1150 447 2328 
Q 447 3434 972 4092 
Q 1497 4750 2381 4750 
Q 2619 4750 2861 4703 
Q 3103 4656 3366 4563 
z
" transform="scale(0.015625)"/>
       </defs>
       <use xlink:href="#DejaVuSans-2212"/>
       <use xlink:href="#DejaVuSans-36" transform="translate(83.789062 0)"/>
       <use xlink:href="#DejaVuSans-30" transform="translate(147.412109 0)"/>
      </g>
     </g>
    </g>
    <g id="ytick_5">
     <g id="line2d_13">
      <g>
       <use xlink:href="#m62f578b039" x="90" y="192.57561" style="stroke: #000000; stroke-width: 0.8"/>
      </g>
     </g>
     <g id="text_14">
      <!-- −40 -->
      <g transform="translate(61.895313 196.374829) scale(0.1 -0.1)">
       <defs>
        <path id="DejaVuSans-34" d="M 2419 4116 
L 825 1625 
L 2419 1625 
L 2419 4116 
z
M 2253 4666 
L 3047 4666 
L 3047 1625 
L 3713 1625 
L 3713 1100 
L 3047 1100 
L 3047 0 
L 2419 0 
L 2419 1100 
L 313 1100 
L 313 1709 
L 2253 4666 
z
" transform="scale(0.015625)"/>
       </defs>
       <use xlink:href="#DejaVuSans-2212"/>
       <use xlink:href="#DejaVuSans-34" transform="translate(83.789062 0)"/>
       <use xlink:href="#DejaVuSans-30" transform="translate(147.412109 0)"/>
      </g>
     </g>
    </g>
    <g id="ytick_6">
     <g id="line2d_14">
      <g>
       <use xlink:href="#m62f578b039" x="90" y="147.384299" style="stroke: #000000; stroke-width: 0.8"/>
      </g>
     </g>
     <g id="text_15">
      <!-- −20 -->
      <g transform="translate(61.895313 151.183517) scale(0.1 -0.1)">
       <use xlink:href="#DejaVuSans-2212"/>
       <use xlink:href="#DejaVuSans-32" transform="translate(83.789062 0)"/>
       <use xlink:href="#DejaVuSans-30" transform="translate(147.412109 0)"/>
      </g>
     </g>
    </g>
    <g id="ytick_7">
     <g id="line2d_15">
      <g>
       <use xlink:href="#m62f578b039" x="90" y="102.192987" style="stroke: #000000; stroke-width: 0.8"/>
      </g>
     </g>
     <g id="text_16">
      <!-- 0 -->
      <g transform="translate(76.6375 105.992206) scale(0.1 -0.1)">
       <use xlink:href="#DejaVuSans-30"/>
      </g>
     </g>
    </g>
    <g id="ytick_8">
     <g id="line2d_16">
      <g>
       <use xlink:href="#m62f578b039" x="90" y="57.001676" style="stroke: #000000; stroke-width: 0.8"/>
      </g>
     </g>
     <g id="text_17">
      <!-- 20 -->
      <g transform="translate(70.275 60.800894) scale(0.1 -0.1)">
       <use xlink:href="#DejaVuSans-32"/>
       <use xlink:href="#DejaVuSans-30" transform="translate(63.623047 0)"/>
      </g>
     </g>
    </g>
    <g id="text_18">
     <!-- Differential phase (degrees) -->
     <g transform="translate(49.453125 288.280312) rotate(-90) scale(0.1 -0.1)">
      <defs>
       <path id="DejaVuSans-44" d="M 1259 4147 
L 1259 519 
L 2022 519 
Q 2988 519 3436 956 
Q 3884 1394 3884 2338 
Q 3884 3275 3436 3711 
Q 2988 4147 2022 4147 
L 1259 4147 
z
M 628 4666 
L 1925 4666 
Q 3281 4666 3915 4102 
Q 4550 3538 4550 2338 
Q 4550 1131 3912 565 
Q 3275 0 1925 0 
L 628 0 
L 628 4666 
z
" transform="scale(0.015625)"/>
       <path id="DejaVuSans-66" d="M 2375 4863 
L 2375 4384 
L 1825 4384 
Q 1516 4384 1395 4259 
Q 1275 4134 1275 3809 
L 1275 3500 
L 2222 3500 
L 2222 3053 
L 1275 3053 
L 1275 0 
L 697 0 
L 697 3053 
L 147 3053 
L 147 3500 
L 697 3500 
L 697 3744 
Q 697 4328 969 4595 
Q 1241 4863 1831 4863 
L 2375 4863 
z
" transform="scale(0.015625)"/>
       <path id="DejaVuSans-6e" d="M 3513 2113 
L 3513 0 
L 2938 0 
L 2938 2094 
Q 2938 2591 2744 2837 
Q 2550 3084 2163 3084 
Q 1697 3084 1428 2787 
Q 1159 2491 1159 1978 
L 1159 0 
L 581 0 
L 581 3500 
L 1159 3500 
L 1159 2956 
Q 1366 3272 1645 3428 
Q 1925 3584 2291 3584 
Q 2894 3584 3203 3211 
Q 3513 2838 3513 2113 
z
" transform="scale(0.015625)"/>
       <path id="DejaVuSans-74" d="M 1172 4494 
L 1172 3500 
L 2356 3500 
L 2356 3053 
L 1172 3053 
L 1172 1153 
Q 1172 725 1289 603 
Q 1406 481 1766 481 
L 2356 481 
L 2356 0 
L 1766 0 
Q 1100 0 847 248 
Q 594 497 594 1153 
L 594 3053 
L 172 3053 
L 172 3500 
L 594 3500 
L 594 4494 
L 1172 4494 
z
" transform="scale(0.015625)"/>
       <path id="DejaVuSans-61" d="M 2194 1759 
Q 1497 1759 1228 1600 
Q 959 1441 959 1056 
Q 959 750 1161 570 
Q 1363 391 1709 391 
Q 2188 391 2477 730 
Q 2766 1069 2766 1631 
L 2766 1759 
L 2194 1759 
z
M 3341 1997 
L 3341 0 
L 2766 0 
L 2766 531 
Q 2569 213 2275 61 
Q 1981 -91 1556 -91 
Q 1019 -91 701 211 
Q 384 513 384 1019 
Q 384 1609 779 1909 
Q 1175 2209 1959 2209 
L 2766 2209 
L 2766 2266 
Q 2766 2663 2505 2880 
Q 2244 3097 1772 3097 
Q 1472 3097 1187 3025 
Q 903 2953 641 2809 
L 641 3341 
Q 956 3463 1253 3523 
Q 1550 3584 1831 3584 
Q 2591 3584 2966 3190 
Q 3341 2797 3341 1997 
z
" transform="scale(0.015625)"/>
       <path id="DejaVuSans-6c" d="M 603 4863 
L 1178 4863 
L 1178 0 
L 603 0 
L 603 4863 
z
" transform="scale(0.015625)"/>
       <path id="DejaVuSans-70" d="M 1159 525 
L 1159 -1331 
L 581 -1331 
L 581 3500 
L 1159 3500 
L 1159 2969 
Q 1341 3281 1617 3432 
Q 1894 3584 2278 3584 
Q 2916 3584 3314 3078 
Q 3713 2572 3713 1747 
Q 3713 922 3314 415 
Q 2916 -91 2278 -91 
Q 1894 -91 1617 61 
Q 1341 213 1159 525 
z
M 3116 1747 
Q 3116 2381 2855 2742 
Q 2594 3103 2138 3103 
Q 1681 3103 1420 2742 
Q 1159 2381 1159 1747 
Q 1159 1113 1420 752 
Q 1681 391 2138 391 
Q 2594 391 2855 752 
Q 3116 1113 3116 1747 
z
" transform="scale(0.015625)"/>
      </defs>
      <use xlink:href="#DejaVuSans-44"/>
      <use xlink:href="#DejaVuSans-69" transform="translate(77.001953 0)"/>
      <use xlink:href="#DejaVuSans-66" transform="translate(104.785156 0)"/>
      <use xlink:href="#DejaVuSans-66" transform="translate(139.990234 0)"/>
      <use xlink:href="#DejaVuSans-65" transform="translate(175.195312 0)"/>
      <use xlink:href="#DejaVuSans-72" transform="translate(236.71875 0)"/>
      <use xlink:href="#DejaVuSans-65" transform="translate(275.582031 0)"/>
      <use xlink:href="#DejaVuSans-6e" transform="translate(337.105469 0)"/>
      <use xlink:href="#DejaVuSans-74" transform="translate(400.484375 0)"/>
      <use xlink:href="#DejaVuSans-69" transform="translate(439.693359 0)"/>
      <use xlink:href="#DejaVuSans-61" transform="translate(467.476562 0)"/>
      <use xlink:href="#DejaVuSans-6c" transform="translate(528.755859 0)"/>
      <use xlink:href="#DejaVuSans-20" transform="translate(556.539062 0)"/>
      <use xlink:href="#DejaVuSans-70" transform="translate(588.326172 0)"/>
      <use xlink:href="#DejaVuSans-68" transform="translate(651.802734 0)"/>
      <use xlink:href="#DejaVuSans-61" transform="translate(715.181641 0)"/>
      <use xlink:href="#DejaVuSans-73" transform="translate(776.460938 0)"/>
      <use xlink:href="#DejaVuSans-65" transform="translate(828.560547 0)"/>
      <use xlink:href="#DejaVuSans-20" transform="translate(890.083984 0)"/>
      <use xlink:href="#DejaVuSans-28" transform="translate(921.871094 0)"/>
      <use xlink:href="#DejaVuSans-64" transform="translate(960.884766 0)"/>
      <use xlink:href="#DejaVuSans-65" transform="translate(1024.361328 0)"/>
      <use xlink:href="#DejaVuSans-67" transform="translate(1085.884766 0)"/>
      <use xlink:href="#DejaVuSans-72" transform="translate(1149.361328 0)"/>
      <use xlink:href="#DejaVuSans-65" transform="translate(1188.224609 0)"/>
      <use xlink:href="#DejaVuSans-65" transform="translate(1249.748047 0)"/>
      <use xlink:href="#DejaVuSans-73" transform="translate(1311.271484 0)"/>
      <use xlink:href="#DejaVuSans-29" transform="translate(1363.371094 0)"/>
     </g>
    </g>
   </g>
   <g id="line2d_17">
    <path d="M 115.363636 151.523871 
L 121 164.14413 
L 126.636364 177.619055 
L 132.272727 192.188237 
L 140.727273 214.824622 
L 143.545455 221.785399 
L 146.363636 228.031758 
L 149.181818 233.348123 
L 152 237.585433 
L 154.818182 240.670504 
L 157.636364 242.600752 
L 160.454545 243.430394 
L 163.272727 243.254309 
L 166.090909 242.19357 
L 168.909091 240.384288 
L 171.727273 237.969798 
L 174.545455 235.095415 
L 177.363636 231.904824 
L 185.818182 221.790877 
L 188.636364 218.64456 
L 191.454545 215.780326 
L 194.272727 213.273358 
L 197.090909 211.17699 
L 199.909091 209.52057 
L 202.727273 208.30851 
L 205.545455 207.520914 
L 208.363636 207.116052 
L 211.181818 207.034621 
L 214 207.205427 
L 219.636364 207.997848 
L 225.272727 208.92002 
L 228.090909 209.288646 
L 230.909091 209.544513 
L 233.727273 209.664087 
L 236.545455 209.633821 
L 239.363636 209.448043 
L 242.181818 209.106748 
L 245 208.613531 
L 247.818182 207.973788 
L 250.636364 207.193225 
L 253.454545 206.276699 
L 256.272727 205.227335 
L 259.090909 204.04591 
L 261.909091 202.730453 
L 264.727273 201.276044 
L 267.545455 199.674789 
L 270.363636 197.91595 
L 273.181818 195.986256 
L 276 193.870371 
L 278.818182 191.55155 
L 281.636364 189.0125 
L 284.454545 186.236464 
L 287.272727 183.208595 
L 290.090909 179.91766 
L 292.909091 176.358167 
L 295.727273 172.532995 
L 298.545455 168.456605 
L 304.181818 159.689158 
L 312.636364 146.123486 
L 315.454545 141.985238 
L 318.272727 138.325675 
L 321.090909 135.345798 
L 323.909091 133.249676 
L 326.727273 132.228123 
L 329.545455 132.440209 
L 332.363636 133.993808 
L 335.181818 136.926486 
L 338 141.188812 
L 340.818182 146.633717 
L 343.636364 153.017039 
L 349.272727 167.250097 
L 352.090909 174.345871 
L 354.909091 180.954927 
L 357.727273 186.79429 
L 360.545455 191.656703 
L 363.363636 195.408879 
L 366.181818 197.981331 
L 369 199.355715 
L 371.818182 199.553484 
L 374.636364 198.627185 
L 377.454545 196.654077 
L 380.272727 193.730932 
L 383.090909 189.968979 
L 385.909091 185.488456 
L 388.727273 180.412953 
L 391.545455 174.864332 
L 397.181818 162.807385 
L 408.454545 137.791564 
L 411.272727 131.948898 
L 414.090909 126.480093 
L 416.909091 121.48486 
L 419.727273 117.051588 
L 422.545455 113.251414 
L 425.363636 110.133698 
L 428.181818 107.723672 
L 431 106.02247 
L 433.818182 105.009192 
L 436.636364 104.644405 
L 439.454545 104.8744 
L 442.272727 105.635643 
L 445.090909 106.858989 
L 447.909091 108.473409 
L 450.727273 110.409079 
L 453.545455 112.599784 
L 459.181818 117.509271 
L 467.636364 125.483113 
L 476.090909 133.417925 
L 481.727273 138.447883 
L 487.363636 143.197305 
L 493 147.648528 
L 498.636364 151.806727 
L 504.272727 155.690552 
L 509.909091 159.327213 
L 515.545455 162.749905 
L 524 167.560183 
L 532.454545 172.05239 
L 538.090909 174.843744 
L 543.727273 177.362412 
L 546.545455 178.460999 
L 549.363636 179.406859 
L 552.181818 180.155748 
L 555 180.654732 
L 557.818182 180.841737 
L 560.636364 180.645214 
L 563.454545 179.984119 
L 566.272727 178.768623 
L 569.090909 176.90238 
L 571.909091 174.287772 
L 574.727273 170.836278 
L 577.545455 166.486691 
L 580.363636 161.233433 
L 583.181818 155.164177 
L 591.636364 135.009557 
L 594.454545 129.265851 
L 597.272727 124.902156 
L 600.090909 122.285148 
L 602.909091 121.564254 
L 605.727273 122.671047 
L 608.545455 125.36796 
L 611.363636 129.322517 
L 614.181818 134.183654 
L 617 139.642636 
L 622.636364 151.523871 
L 622.636364 151.523871 
" clip-path="url(#pf3c90fa30d)" style="fill: none; stroke: #1f77b4; stroke-opacity: 0.5; stroke-width: 1.5; stroke-linecap: square"/>
   </g>
   <g id="line2d_18">
    <path d="M 115.363636 149.078306 
L 121 162.418069 
L 126.636364 176.485785 
L 132.272727 191.619052 
L 140.727273 215.352729 
L 143.545455 222.795383 
L 146.363636 229.58114 
L 149.181818 235.48286 
L 152 240.336324 
L 154.818182 244.053133 
L 157.636364 246.617905 
L 160.454545 248.075571 
L 163.272727 248.515247 
L 166.090909 248.055213 
L 168.909091 246.831062 
L 171.727273 244.987269 
L 174.545455 242.671482 
L 177.363636 240.030569 
L 185.818182 231.551116 
L 188.636364 228.958038 
L 191.454545 226.656565 
L 194.272727 224.723131 
L 197.090909 223.21013 
L 199.909091 222.143209 
L 202.727273 221.519976 
L 205.545455 221.310703 
L 208.363636 221.461378 
L 211.181818 221.899066 
L 216.818182 223.292696 
L 222.454545 224.811015 
L 225.272727 225.438984 
L 228.090909 225.912924 
L 230.909091 226.201904 
L 233.727273 226.28843 
L 236.545455 226.165909 
L 239.363636 225.835833 
L 242.181818 225.305058 
L 245 224.583387 
L 247.818182 223.681583 
L 250.636364 222.609804 
L 253.454545 221.376428 
L 256.272727 219.987217 
L 259.090909 218.444763 
L 261.909091 216.748158 
L 264.727273 214.892865 
L 267.545455 212.87076 
L 270.363636 210.670332 
L 273.181818 208.277048 
L 276 205.673888 
L 278.818182 202.842076 
L 281.636364 199.762025 
L 284.454545 196.414557 
L 287.272727 192.782454 
L 290.090909 188.852432 
L 292.909091 184.617634 
L 295.727273 180.080781 
L 298.545455 175.258037 
L 304.181818 164.914649 
L 312.636364 148.955554 
L 315.454545 144.086242 
L 318.272727 139.766182 
L 321.090909 136.216433 
L 323.909091 133.655897 
L 326.727273 132.283055 
L 329.545455 132.256578 
L 332.363636 133.675925 
L 335.181818 136.562933 
L 338 140.84624 
L 340.818182 146.352325 
L 343.636364 152.808596 
L 352.090909 174.188491 
L 354.909091 180.715773 
L 357.727273 186.423405 
L 360.545455 191.112663 
L 363.363636 194.660922 
L 366.181818 197.009459 
L 369 198.149692 
L 371.818182 198.111426 
L 374.636364 196.954163 
L 377.454545 194.760875 
L 380.272727 191.633019 
L 383.090909 187.685715 
L 385.909091 183.042549 
L 388.727273 177.830203 
L 391.545455 172.173611 
L 397.181818 160.000033 
L 405.636364 141.206036 
L 408.454545 135.207169 
L 411.272727 129.507863 
L 414.090909 124.204477 
L 416.909091 119.386052 
L 419.727273 115.129419 
L 422.545455 111.494583 
L 425.363636 108.52133 
L 428.181818 106.227639 
L 431 104.609989 
L 433.818182 103.645305 
L 436.636364 103.294063 
L 439.454545 103.504026 
L 442.272727 104.214165 
L 445.090909 105.358427 
L 447.909091 106.869097 
L 450.727273 108.679644 
L 453.545455 110.726967 
L 459.181818 115.305999 
L 470.454545 125.184965 
L 476.090909 130.022068 
L 481.727273 134.625968 
L 487.363636 138.948777 
L 493 142.979652 
L 498.636364 146.730601 
L 504.272727 150.227493 
L 509.909091 153.505165 
L 518.363636 158.100779 
L 526.818182 162.433119 
L 535.272727 166.564216 
L 540.909091 169.138358 
L 546.545455 171.408603 
L 549.363636 172.354187 
L 552.181818 173.117679 
L 555 173.646724 
L 557.818182 173.880001 
L 560.636364 173.746916 
L 563.454545 173.167577 
L 566.272727 172.053453 
L 569.090909 170.309464 
L 571.909091 167.83882 
L 574.727273 164.552628 
L 577.545455 160.386904 
L 580.363636 155.329359 
L 583.181818 149.45581 
L 591.636364 129.72625 
L 594.454545 124.042561 
L 597.272727 119.72061 
L 600.090909 117.162715 
L 602.909091 116.555786 
L 605.727273 117.858336 
L 608.545455 120.841268 
L 611.363636 125.161137 
L 614.181818 130.441805 
L 617 136.343963 
L 622.636364 149.078306 
L 622.636364 149.078306 
" clip-path="url(#pf3c90fa30d)" style="fill: none; stroke: #ff7f0e; stroke-opacity: 0.5; stroke-width: 1.5; stroke-linecap: square"/>
   </g>
   <g id="line2d_19">
    <path d="M 115.363636 146.085887 
L 121 160.166084 
L 126.636364 174.833072 
L 132.272727 190.514238 
L 143.545455 223.196246 
L 146.363636 230.507494 
L 149.181818 236.986873 
L 152 242.456039 
L 154.818182 246.811762 
L 157.636364 250.025959 
L 160.454545 252.134374 
L 163.272727 253.22063 
L 166.090909 253.400704 
L 168.909091 252.810355 
L 171.727273 251.596006 
L 174.545455 249.908498 
L 177.363636 247.898728 
L 185.818182 241.375266 
L 188.636364 239.469042 
L 191.454545 237.87636 
L 194.272727 236.673344 
L 197.090909 235.908943 
L 199.909091 235.60156 
L 202.727273 235.737497 
L 205.545455 236.272013 
L 208.363636 237.133468 
L 211.181818 238.230441 
L 219.636364 241.920193 
L 222.454545 242.974986 
L 225.272727 243.825716 
L 228.090909 244.430715 
L 230.909091 244.766142 
L 233.727273 244.823055 
L 236.545455 244.603852 
L 239.363636 244.118689 
L 242.181818 243.382281 
L 245 242.411236 
L 247.818182 241.221974 
L 250.636364 239.829184 
L 253.454545 238.24472 
L 256.272727 236.476871 
L 259.090909 234.529911 
L 261.909091 232.403867 
L 264.727273 230.094476 
L 267.545455 227.593296 
L 270.363636 224.887967 
L 273.181818 221.962628 
L 276 218.798499 
L 278.818182 215.37467 
L 281.636364 211.669139 
L 284.454545 207.660159 
L 287.272727 203.328002 
L 290.090909 198.657249 
L 292.909091 193.639776 
L 295.727273 188.278554 
L 298.545455 182.59239 
L 304.181818 170.433572 
L 312.636364 151.762277 
L 315.454545 146.084544 
L 318.272727 141.047109 
L 321.090909 136.892035 
L 323.909091 133.851704 
L 326.727273 132.128978 
L 329.545455 131.877656 
L 332.363636 133.183963 
L 335.181818 136.049491 
L 338 140.377146 
L 340.818182 145.964065 
L 343.636364 152.507452 
L 352.090909 173.94842 
L 354.909091 180.391392 
L 357.727273 185.965111 
L 360.545455 190.480914 
L 363.363636 193.827833 
L 366.181818 195.958436 
L 369 196.8741 
L 371.818182 196.612979 
L 374.636364 195.241401 
L 377.454545 192.847838 
L 380.272727 189.538158 
L 383.090909 185.431022 
L 385.909091 180.65293 
L 388.727273 175.333086 
L 391.545455 169.598759 
L 397.181818 157.367618 
L 405.636364 138.749123 
L 408.454545 132.873422 
L 411.272727 127.321328 
L 414.090909 122.180984 
L 416.909091 117.53186 
L 419.727273 113.440844 
L 422.545455 109.958661 
L 425.363636 107.117332 
L 428.181818 104.929107 
L 431 103.386939 
L 433.818182 102.466273 
L 436.636364 102.127809 
L 439.454545 102.320801 
L 442.272727 102.986552 
L 445.090909 104.061799 
L 447.909091 105.481798 
L 450.727273 107.182952 
L 453.545455 109.104934 
L 459.181818 113.395332 
L 478.909091 129.225444 
L 484.545455 133.32293 
L 490.181818 137.13352 
L 495.818182 140.664658 
L 501.454545 143.941478 
L 507.090909 147.000216 
L 515.545455 151.275935 
L 526.818182 156.633654 
L 538.090909 161.752755 
L 543.727273 164.094373 
L 546.545455 165.140706 
L 549.363636 166.059485 
L 552.181818 166.807534 
L 555 167.333291 
L 557.818182 167.576388 
L 560.636364 167.467344 
L 563.454545 166.927523 
L 566.272727 165.869724 
L 569.090909 164.200095 
L 571.909091 161.822601 
L 574.727273 158.647936 
L 577.545455 154.609423 
L 580.363636 149.68836 
L 583.181818 143.949194 
L 586 137.579051 
L 591.636364 124.44827 
L 594.454545 118.750824 
L 597.272727 114.390017 
L 600.090909 111.804936 
L 602.909091 111.224569 
L 605.727273 112.641642 
L 608.545455 115.84316 
L 611.363636 120.479987 
L 614.181818 126.152157 
L 617 132.48711 
L 622.636364 146.085887 
L 622.636364 146.085887 
" clip-path="url(#pf3c90fa30d)" style="fill: none; stroke: #2ca02c; stroke-opacity: 0.5; stroke-width: 1.5; stroke-linecap: square"/>
   </g>
   <g id="line2d_20">
    <path d="M 115.363636 142.551991 
L 123.818182 164.943064 
L 129.454545 180.638723 
L 135.090909 197.384285 
L 143.545455 222.997642 
L 146.363636 230.816508 
L 149.181818 237.860555 
L 152 243.938367 
L 154.818182 248.932232 
L 157.636364 252.801339 
L 160.454545 255.572197 
L 163.272727 257.323084 
L 166.090909 258.168094 
L 168.909091 258.243833 
L 171.727273 257.69956 
L 174.545455 256.690321 
L 177.363636 255.372086 
L 185.818182 251.057042 
L 188.636364 249.946932 
L 191.454545 249.184079 
L 194.272727 248.842473 
L 197.090909 248.964616 
L 199.909091 249.557469 
L 202.727273 250.590858 
L 205.545455 251.999424 
L 208.363636 253.688661 
L 216.818182 259.276445 
L 219.636364 260.933854 
L 222.454545 262.337854 
L 225.272727 263.431835 
L 228.090909 264.182207 
L 230.909091 264.5752 
L 233.727273 264.612482 
L 236.545455 264.306567 
L 239.363636 263.676616 
L 242.181818 262.74495 
L 245 261.534329 
L 247.818182 260.06596 
L 250.636364 258.358101 
L 253.454545 256.425136 
L 256.272727 254.277006 
L 259.090909 251.918896 
L 261.909091 249.351119 
L 264.727273 246.569155 
L 267.545455 243.56382 
L 270.363636 240.321557 
L 273.181818 236.824883 
L 276 233.052986 
L 278.818182 228.982549 
L 281.636364 224.588852 
L 284.454545 219.847251 
L 287.272727 214.735181 
L 290.090909 209.234855 
L 292.909091 203.33686 
L 295.727273 197.044865 
L 298.545455 190.38151 
L 304.181818 176.167995 
L 309.818182 161.518656 
L 312.636364 154.468158 
L 315.454545 147.910855 
L 318.272727 142.108641 
L 321.090909 137.324676 
L 323.909091 133.802109 
L 326.727273 131.743453 
L 329.545455 131.292027 
L 332.363636 132.515367 
L 335.181818 135.390146 
L 338 139.789904 
L 340.818182 145.479931 
L 343.636364 152.1259 
L 352.090909 173.638697 
L 354.909091 179.995158 
L 357.727273 185.433367 
L 360.545455 189.776201 
L 363.363636 192.925226 
L 366.181818 194.844708 
L 369 195.546061 
L 371.818182 195.075676 
L 374.636364 193.506468 
L 377.454545 190.932101 
L 380.272727 187.462476 
L 383.090909 183.219353 
L 385.909091 178.331621 
L 388.727273 172.930379 
L 391.545455 167.144465 
L 397.181818 154.904388 
L 402.818182 142.510646 
L 408.454545 130.761764 
L 411.272727 125.356804 
L 414.090909 120.37447 
L 416.909091 115.885763 
L 419.727273 111.949068 
L 422.545455 108.607381 
L 425.363636 105.886408 
L 428.181818 103.793857 
L 431 102.319995 
L 433.818182 101.43929 
L 436.636364 101.112863 
L 439.454545 101.291434 
L 442.272727 101.918452 
L 445.090909 102.933183 
L 447.909091 104.273542 
L 450.727273 105.878564 
L 453.545455 107.690403 
L 459.181818 111.727353 
L 476.090909 124.499708 
L 481.727273 128.414681 
L 487.363636 132.050246 
L 493 135.405784 
L 498.636364 138.502906 
L 504.272727 141.376948 
L 512.727273 145.367775 
L 524 150.349205 
L 538.090909 156.363015 
L 543.727273 158.580492 
L 546.545455 159.575221 
L 549.363636 160.450069 
L 552.181818 161.162586 
L 555 161.6621 
L 557.818182 161.889286 
L 560.636364 161.775844 
L 563.454545 161.244428 
L 566.272727 160.209149 
L 569.090909 158.577325 
L 571.909091 156.253585 
L 574.727273 153.148142 
L 577.545455 149.191654 
L 580.363636 144.359194 
L 583.181818 138.704137 
L 586 132.397615 
L 591.636364 119.264182 
L 594.454545 113.485761 
L 597.272727 109.008946 
L 600.090909 106.30932 
L 602.909091 105.661521 
L 605.727273 107.099846 
L 608.545455 110.436585 
L 611.363636 115.324843 
L 614.181818 121.344835 
L 617 128.089981 
L 622.636364 142.551991 
L 622.636364 142.551991 
" clip-path="url(#pf3c90fa30d)" style="fill: none; stroke: #d62728; stroke-opacity: 0.5; stroke-width: 1.5; stroke-linecap: square"/>
   </g>
   <g id="line2d_21">
    <path d="M 115.363636 138.48536 
L 126.636364 170.00016 
L 132.272727 186.744811 
L 137.909091 204.467402 
L 143.545455 222.210687 
L 146.363636 230.516562 
L 149.181818 238.10841 
L 152 244.782846 
L 154.818182 250.407966 
L 157.636364 254.930055 
L 160.454545 258.366115 
L 163.272727 260.788975 
L 166.090909 262.311034 
L 168.909091 263.070221 
L 171.727273 263.219339 
L 174.545455 262.918502 
L 177.363636 262.329671 
L 183 260.918783 
L 185.818182 260.390241 
L 188.636364 260.150329 
L 191.454545 260.299034 
L 194.272727 260.905727 
L 197.090909 262.002727 
L 199.909091 263.580733 
L 202.727273 265.58772 
L 205.545455 267.932669 
L 216.818182 278.111884 
L 219.636364 280.216455 
L 222.454545 281.955191 
L 225.272727 283.281069 
L 228.090909 284.172477 
L 230.909091 284.628061 
L 233.727273 284.660986 
L 236.545455 284.293581 
L 239.363636 283.552862 
L 242.181818 282.46707 
L 245 281.063164 
L 247.818182 279.365102 
L 250.636364 277.39273 
L 253.454545 275.161111 
L 256.272727 272.680159 
L 259.090909 269.954487 
L 261.909091 266.983404 
L 264.727273 263.761016 
L 267.545455 260.276432 
L 270.363636 256.51406 
L 273.181818 252.454028 
L 276 248.072771 
L 278.818182 243.343838 
L 281.636364 238.239032 
L 284.454545 232.730021 
L 287.272727 226.790616 
L 290.090909 220.399978 
L 292.909091 213.54705 
L 295.727273 206.236471 
L 298.545455 198.496064 
L 304.181818 182.00547 
L 309.818182 165.081298 
L 312.636364 156.98207 
L 315.454545 149.486043 
L 318.272727 142.886413 
L 321.090909 137.466268 
L 323.909091 133.475105 
L 326.727273 131.108826 
L 329.545455 130.493708 
L 332.363636 131.672821 
L 335.181818 134.593433 
L 338 139.096547 
L 340.818182 144.913652 
L 343.636364 151.67815 
L 352.090909 173.272624 
L 354.909091 179.540355 
L 357.727273 184.841727 
L 360.545455 189.012541 
L 363.363636 191.967653 
L 366.181818 193.683297 
L 369 194.18089 
L 371.818182 193.514837 
L 374.636364 191.764317 
L 377.454545 189.027792 
L 380.272727 185.418746 
L 383.090909 181.061531 
L 385.909091 176.086857 
L 388.727273 170.62707 
L 394.363636 158.764879 
L 402.818182 140.353929 
L 405.636364 134.462799 
L 408.454545 128.846239 
L 411.272727 123.585701 
L 414.090909 118.754773 
L 416.909091 114.417026 
L 419.727273 110.623599 
L 422.545455 107.411047 
L 425.363636 104.799917 
L 428.181818 102.794302 
L 431 101.382421 
L 433.818182 100.53812 
L 436.636364 100.223065 
L 439.454545 100.389381 
L 442.272727 100.982492 
L 445.090909 101.943947 
L 447.909091 103.214056 
L 450.727273 104.734214 
L 453.545455 106.44881 
L 459.181818 110.262123 
L 476.090909 122.238066 
L 481.727273 125.873365 
L 487.363636 129.231324 
L 493 132.315223 
L 498.636364 135.150064 
L 504.272727 137.774213 
L 512.727273 141.418978 
L 526.818182 147.1316 
L 540.909091 152.680451 
L 546.545455 154.631618 
L 549.363636 155.452367 
L 552.181818 156.116807 
L 555 156.575176 
L 557.818182 156.769213 
L 560.636364 156.631809 
L 563.454545 156.086893 
L 566.272727 155.049848 
L 569.090909 153.429091 
L 571.909091 151.129832 
L 574.727273 148.061744 
L 577.545455 144.15284 
L 580.363636 139.37212 
L 583.181818 133.762123 
L 586 127.478041 
L 591.636364 114.24918 
L 594.454545 108.332774 
L 597.272727 103.670992 
L 600.090909 100.773923 
L 602.909091 99.963655 
L 605.727273 101.322443 
L 608.545455 104.697669 
L 611.363636 109.754899 
L 614.181818 116.06169 
L 617 123.179435 
L 622.636364 138.48536 
L 622.636364 138.48536 
" clip-path="url(#pf3c90fa30d)" style="fill: none; stroke: #9467bd; stroke-opacity: 0.5; stroke-width: 1.5; stroke-linecap: square"/>
   </g>
   <g id="line2d_22">
    <path d="M 115.363636 133.900063 
L 126.636364 166.832302 
L 132.272727 184.100109 
L 137.909091 202.370946 
L 143.545455 220.846935 
L 146.363636 229.617407 
L 149.181818 237.737436 
L 152 244.992846 
L 154.818182 251.237818 
L 157.636364 256.405407 
L 160.454545 260.502596 
L 163.272727 263.596363 
L 166.090909 265.797273 
L 168.909091 267.244722 
L 171.727273 268.095437 
L 174.545455 268.515113 
L 180.181818 268.732961 
L 183 268.856053 
L 185.818182 269.187101 
L 188.636364 269.851663 
L 191.454545 270.94736 
L 194.272727 272.535565 
L 197.090909 274.633983 
L 199.909091 277.212035 
L 202.727273 280.191166 
L 208.363636 286.845384 
L 211.181818 290.213952 
L 214 293.40605 
L 216.818182 296.292651 
L 219.636364 298.775976 
L 222.454545 300.792153 
L 225.272727 302.308691 
L 228.090909 303.318758 
L 230.909091 303.83429 
L 233.727273 303.879325 
L 236.545455 303.484379 
L 239.363636 302.682099 
L 242.181818 301.504154 
L 245 299.979146 
L 247.818182 298.131298 
L 250.636364 295.979689 
L 253.454545 293.53787 
L 256.272727 290.813711 
L 259.090909 287.809399 
L 261.909091 284.521529 
L 264.727273 280.941257 
L 267.545455 277.054503 
L 270.363636 272.842225 
L 273.181818 268.280783 
L 276 263.342457 
L 278.818182 257.996208 
L 281.636364 252.208824 
L 284.454545 245.946642 
L 287.272727 239.178164 
L 290.090909 231.877917 
L 292.909091 224.032007 
L 295.727273 215.645719 
L 298.545455 206.753249 
L 304.181818 187.79821 
L 309.818182 168.414514 
L 312.636364 159.199417 
L 315.454545 150.724057 
L 318.272727 143.314798 
L 321.090909 137.271704 
L 323.909091 132.844244 
L 326.727273 130.214022 
L 329.545455 129.483125 
L 332.363636 130.66455 
L 335.181818 133.672262 
L 338 138.312286 
L 340.818182 144.281073 
L 343.636364 151.179646 
L 349.272727 165.918249 
L 352.090909 172.863182 
L 354.909091 179.039652 
L 357.727273 184.202866 
L 360.545455 188.202816 
L 363.363636 190.968253 
L 366.181818 192.48752 
L 369 192.791886 
L 371.818182 191.94346 
L 374.636364 190.027285 
L 377.454545 187.14616 
L 380.272727 183.416652 
L 383.090909 178.965168 
L 385.909091 173.923653 
L 388.727273 168.425069 
L 394.363636 156.569586 
L 402.818182 138.36733 
L 405.636364 132.590289 
L 408.454545 127.103545 
L 411.272727 121.983019 
L 414.090909 117.296059 
L 416.909091 113.099759 
L 419.727273 109.439084 
L 422.545455 106.345212 
L 425.363636 103.834464 
L 428.181818 101.908036 
L 431 100.552587 
L 433.818182 99.741598 
L 436.636364 99.437344 
L 439.454545 99.593283 
L 442.272727 100.156648 
L 445.090909 101.071053 
L 447.909091 102.278968 
L 450.727273 103.723916 
L 453.545455 105.352298 
L 459.181818 108.967406 
L 473.272727 118.449131 
L 478.909091 121.968954 
L 484.545455 125.222496 
L 490.181818 128.201348 
L 495.818182 130.923961 
L 501.454545 133.425306 
L 509.909091 136.862697 
L 521.181818 141.128215 
L 540.909091 148.412022 
L 546.545455 150.234732 
L 549.363636 150.996171 
L 552.181818 151.605484 
L 555 152.013801 
L 557.818182 152.163905 
L 560.636364 151.989851 
L 563.454545 151.416806 
L 566.272727 150.361377 
L 569.090909 148.733012 
L 571.909091 146.437443 
L 574.727273 143.383773 
L 577.545455 139.497426 
L 580.363636 134.741503 
L 583.181818 129.147965 
L 586 122.856149 
L 591.636364 109.462893 
L 594.454545 103.363959 
L 597.272727 98.460057 
L 600.090909 95.29207 
L 602.909091 94.229092 
L 605.727273 95.405775 
L 608.545455 98.713772 
L 611.363636 103.842706 
L 614.181818 110.357647 
L 617 117.793356 
L 622.636364 133.900063 
L 622.636364 133.900063 
" clip-path="url(#pf3c90fa30d)" style="fill: none; stroke: #8c564b; stroke-opacity: 0.5; stroke-width: 1.5; stroke-linecap: square"/>
   </g>
   <g id="line2d_23">
    <path d="M 115.363636 128.817556 
L 129.454545 171.947512 
L 135.090909 190.240862 
L 146.363636 228.1292 
L 149.181818 236.755857 
L 152 244.573989 
L 154.818182 251.424167 
L 157.636364 257.225801 
L 160.454545 261.975112 
L 163.272727 265.732528 
L 166.090909 268.606298 
L 168.909091 270.737063 
L 171.727273 272.285461 
L 174.545455 273.422857 
L 183 276.102206 
L 185.818182 277.292141 
L 188.636364 278.857835 
L 191.454545 280.891536 
L 194.272727 283.442649 
L 197.090909 286.50972 
L 199.909091 290.036637 
L 202.727273 293.915592 
L 211.181818 306.087372 
L 214 309.767116 
L 216.818182 313.029845 
L 219.636364 315.791528 
L 222.454545 318.005467 
L 225.272727 319.656591 
L 228.090909 320.753551 
L 230.909091 321.320689 
L 233.727273 321.391079 
L 236.545455 321.001121 
L 239.363636 320.186671 
L 242.181818 318.980472 
L 245 317.410573 
L 247.818182 315.499442 
L 250.636364 313.263542 
L 253.454545 310.713192 
L 256.272727 307.852592 
L 259.090909 304.67994 
L 261.909091 301.187575 
L 264.727273 297.362149 
L 267.545455 293.184806 
L 270.363636 288.631382 
L 273.181818 283.672681 
L 276 278.274883 
L 278.818182 272.400197 
L 281.636364 266.007974 
L 284.454545 259.056532 
L 287.272727 251.506152 
L 290.090909 243.323774 
L 292.909091 234.490068 
L 295.727273 225.009401 
L 298.545455 214.922768 
L 304.181818 193.366566 
L 309.818182 171.381092 
L 312.636364 161.006325 
L 315.454545 151.536401 
L 318.272727 143.331186 
L 321.090909 136.702433 
L 323.909091 131.891167 
L 326.727273 129.055973 
L 329.545455 128.267625 
L 332.363636 129.504171 
L 335.181818 132.643369 
L 338 137.454781 
L 340.818182 143.599372 
L 343.636364 150.646317 
L 349.272727 165.51299 
L 352.090909 172.422523 
L 354.909091 178.504674 
L 357.727273 183.528224 
L 360.545455 187.358474 
L 363.363636 189.938527 
L 366.181818 191.268836 
L 369 191.39027 
L 371.818182 190.372248 
L 374.636364 188.305214 
L 377.454545 185.295805 
L 380.272727 181.463139 
L 383.090909 176.935127 
L 385.909091 171.844377 
L 388.727273 166.323874 
L 394.363636 154.504218 
L 402.818182 136.534233 
L 405.636364 130.872282 
L 408.454545 125.512927 
L 411.272727 120.52698 
L 414.090909 115.976219 
L 416.909091 111.912109 
L 419.727273 108.374359 
L 422.545455 105.389645 
L 425.363636 102.970811 
L 428.181818 101.116727 
L 431 99.812858 
L 433.818182 99.032502 
L 436.636364 98.738578 
L 439.454545 98.885796 
L 442.272727 99.423039 
L 445.090909 100.295796 
L 447.909091 101.448486 
L 450.727273 102.826552 
L 456.363636 106.055866 
L 464.818182 111.447839 
L 473.272727 116.783585 
L 478.909091 120.086926 
L 484.545455 123.125359 
L 490.181818 125.893731 
L 495.818182 128.413009 
L 501.454545 130.720106 
L 509.909091 133.886022 
L 524 138.802676 
L 540.909091 144.621881 
L 546.545455 146.316532 
L 549.363636 147.016869 
L 552.181818 147.567883 
L 555 147.921557 
L 557.818182 148.021679 
L 560.636364 147.803428 
L 563.454545 147.193163 
L 566.272727 146.108666 
L 569.090909 144.460367 
L 571.909091 142.154488 
L 574.727273 139.099575 
L 577.545455 135.218572 
L 580.363636 130.468918 
L 583.181818 124.872329 
L 586 118.552498 
L 591.636364 104.948821 
L 594.454545 98.636079 
L 597.272727 93.446819 
L 600.090909 89.947584 
L 602.909091 88.551735 
L 605.727273 89.448124 
L 608.545455 92.579982 
L 611.363636 97.672594 
L 614.181818 104.300951 
L 617 111.982146 
L 622.636364 128.817556 
L 622.636364 128.817556 
" clip-path="url(#pf3c90fa30d)" style="fill: none; stroke: #e377c2; stroke-opacity: 0.5; stroke-width: 1.5; stroke-linecap: square"/>
   </g>
   <g id="line2d_24">
    <path d="M 115.363636 123.268716 
L 132.272727 177.331353 
L 137.909091 196.623706 
L 146.363636 226.061905 
L 149.181818 235.172256 
L 152 243.532969 
L 154.818182 250.97141 
L 157.636364 257.392881 
L 160.454545 262.781939 
L 163.272727 267.191489 
L 166.090909 270.726665 
L 168.909091 273.528789 
L 171.727273 275.762026 
L 174.545455 277.603103 
L 183 282.566371 
L 185.818182 284.589142 
L 188.636364 287.022428 
L 191.454545 289.949774 
L 194.272727 293.404756 
L 197.090909 297.363065 
L 199.909091 301.740646 
L 211.181818 320.292117 
L 214 324.320573 
L 216.818182 327.836611 
L 219.636364 330.775208 
L 222.454545 333.10932 
L 225.272727 334.841485 
L 228.090909 335.994494 
L 230.909091 336.602965 
L 233.727273 336.706646 
L 236.545455 336.345574 
L 239.363636 335.556848 
L 242.181818 334.372646 
L 245 332.81913 
L 247.818182 330.91593 
L 250.636364 328.67598 
L 253.454545 326.105567 
L 256.272727 323.204464 
L 259.090909 319.966098 
L 261.909091 316.377711 
L 264.727273 312.420492 
L 267.545455 308.06968 
L 270.363636 303.294657 
L 273.181818 298.059062 
L 276 292.321025 
L 278.818182 286.033641 
L 281.636364 279.145955 
L 284.454545 271.60484 
L 287.272727 263.358373 
L 290.090909 254.361546 
L 292.909091 244.58531 
L 295.727273 234.029811 
L 298.545455 222.741888 
L 304.181818 198.507358 
L 309.818182 173.833632 
L 312.636364 162.286013 
L 315.454545 151.838098 
L 318.272727 142.881029 
L 321.090909 135.730146 
L 323.909091 130.607807 
L 326.727273 127.640517 
L 329.545455 126.861427 
L 332.363636 128.210086 
L 335.181818 131.526463 
L 338 136.543233 
L 340.818182 142.886204 
L 343.636364 150.093831 
L 349.272727 165.091266 
L 352.090909 171.961556 
L 354.909091 177.945671 
L 357.727273 182.827753 
L 360.545455 186.489355 
L 363.363636 188.888227 
L 366.181818 190.036809 
L 369 189.985215 
L 371.818182 188.80972 
L 374.636364 186.605658 
L 377.454545 183.482972 
L 380.272727 179.562793 
L 383.090909 174.973989 
L 385.909091 169.849289 
L 388.727273 164.32116 
L 394.363636 152.560839 
L 400 140.623833 
L 405.636364 129.291555 
L 408.454545 124.056015 
L 411.272727 119.19866 
L 414.090909 114.776324 
L 416.909091 110.835592 
L 419.727273 107.411691 
L 422.545455 104.52752 
L 425.363636 102.193053 
L 428.181818 100.405277 
L 431 99.148749 
L 433.818182 98.396718 
L 436.636364 98.112753 
L 439.454545 98.252729 
L 442.272727 98.767038 
L 445.090909 99.602868 
L 447.909091 100.706403 
L 450.727273 102.024826 
L 456.363636 105.109879 
L 464.818182 110.243802 
L 473.272727 115.296998 
L 478.909091 118.408346 
L 484.545455 121.25665 
L 490.181818 123.839635 
L 495.818182 126.180395 
L 501.454545 128.317368 
L 509.909091 131.245673 
L 532.454545 138.558475 
L 540.909091 141.24623 
L 546.545455 142.816647 
L 549.363636 143.456366 
L 552.181818 143.948558 
L 555 144.246015 
L 557.818182 144.293479 
L 560.636364 144.02721 
L 563.454545 143.374714 
L 566.272727 142.254905 
L 569.090909 140.579169 
L 571.909091 138.254213 
L 574.727273 135.188087 
L 577.545455 131.301417 
L 580.363636 126.54629 
L 583.181818 120.93462 
L 586 114.574831 
L 594.454545 94.190129 
L 597.272727 88.686772 
L 600.090909 84.811246 
L 602.909091 83.016454 
L 605.727273 83.544425 
L 608.545455 86.394449 
L 611.363636 91.337594 
L 614.181818 97.972071 
L 617 105.809323 
L 622.636364 123.268716 
L 622.636364 123.268716 
" clip-path="url(#pf3c90fa30d)" style="fill: none; stroke: #7f7f7f; stroke-opacity: 0.5; stroke-width: 1.5; stroke-linecap: square"/>
   </g>
   <g id="line2d_25">
    <path d="M 115.363636 117.295529 
L 132.272727 173.222008 
L 137.909091 192.991903 
L 146.363636 223.424996 
L 149.181818 232.995031 
L 152 241.87673 
L 154.818182 249.884811 
L 157.636364 256.910036 
L 160.454545 262.924278 
L 163.272727 267.971739 
L 166.090909 272.153366 
L 168.909091 275.610303 
L 171.727273 278.50956 
L 174.545455 281.032618 
L 180.181818 285.694319 
L 183 288.189065 
L 185.818182 291.0012 
L 188.636364 294.248252 
L 191.454545 298.00205 
L 194.272727 302.277355 
L 197.090909 307.024942 
L 202.727273 317.437846 
L 208.363636 327.865796 
L 211.181818 332.619179 
L 214 336.872944 
L 216.818182 340.538767 
L 219.636364 343.57256 
L 222.454545 345.96655 
L 225.272727 347.739027 
L 228.090909 348.92442 
L 230.909091 349.565075 
L 233.727273 349.705174 
L 236.545455 349.386607 
L 239.363636 348.646406 
L 242.181818 347.515306 
L 245 346.017048 
L 247.818182 344.168147 
L 250.636364 341.977915 
L 253.454545 339.448614 
L 256.272727 336.575633 
L 259.090909 333.347664 
L 261.909091 329.746805 
L 264.727273 325.748616 
L 267.545455 321.322086 
L 270.363636 316.42955 
L 273.181818 311.026573 
L 276 305.06191 
L 278.818182 298.477677 
L 281.636364 291.210072 
L 284.454545 283.191148 
L 287.272727 274.352486 
L 290.090909 264.631992 
L 292.909091 253.985358 
L 295.727273 242.403597 
L 298.545455 229.936919 
L 304.181818 203.006101 
L 309.818182 175.623523 
L 312.636364 162.926925 
L 315.454545 151.55463 
L 318.272727 141.923062 
L 321.090909 134.340018 
L 323.909091 128.997824 
L 326.727273 125.982505 
L 329.545455 125.284945 
L 332.363636 126.804464 
L 335.181818 130.343145 
L 338 135.597388 
L 340.818182 142.158865 
L 346.454545 157.205482 
L 349.272727 164.663672 
L 352.090909 171.489654 
L 354.909091 177.371313 
L 357.727273 182.109774 
L 360.545455 185.603609 
L 363.363636 187.82534 
L 366.181818 188.799148 
L 369 188.583962 
L 371.818182 187.262393 
L 374.636364 184.934125 
L 377.454545 181.711864 
L 380.272727 177.718216 
L 383.090909 173.082485 
L 385.909091 167.937015 
L 388.727273 162.41327 
L 394.363636 150.731046 
L 400 138.950945 
L 405.636364 127.832606 
L 408.454545 122.716597 
L 411.272727 117.98162 
L 414.090909 113.680144 
L 416.909091 109.85452 
L 419.727273 106.536154 
L 422.545455 103.744765 
L 425.363636 101.487945 
L 428.181818 99.761162 
L 431 98.548278 
L 433.818182 97.822588 
L 436.636364 97.5483 
L 439.454545 97.682373 
L 442.272727 98.176576 
L 445.090909 98.979638 
L 447.909091 100.039343 
L 450.727273 101.304454 
L 456.363636 104.260344 
L 476.090909 115.4654 
L 481.727273 118.277343 
L 487.363636 120.824733 
L 493 123.121666 
L 498.636364 125.201405 
L 507.090909 128.012705 
L 521.181818 132.297808 
L 543.727273 138.993736 
L 549.363636 140.263221 
L 552.181818 140.697819 
L 555 140.939522 
L 557.818182 140.933985 
L 560.636364 140.618499 
L 563.454545 139.921679 
L 566.272727 138.763539 
L 569.090909 137.056409 
L 571.909091 134.70751 
L 574.727273 131.624489 
L 577.545455 127.725868 
L 580.363636 122.958765 
L 583.181818 117.325835 
L 586 110.920795 
L 594.454545 90.052232 
L 597.272727 84.219825 
L 600.090909 79.938773 
L 602.909091 77.695399 
L 605.727273 77.781323 
L 608.545455 80.253134 
L 611.363636 84.935057 
L 614.181818 91.461057 
L 617 99.35083 
L 619.818182 108.105263 
L 622.636364 117.295529 
L 622.636364 117.295529 
" clip-path="url(#pf3c90fa30d)" style="fill: none; stroke: #bcbd22; stroke-opacity: 0.5; stroke-width: 1.5; stroke-linecap: square"/>
   </g>
   <g id="line2d_26">
    <path d="M 115.363636 110.95209 
L 135.090909 178.623268 
L 140.727273 199.317634 
L 146.363636 220.227424 
L 149.181818 230.232165 
L 152 239.61199 
L 154.818182 248.169736 
L 157.636364 255.78129 
L 160.454545 262.404772 
L 163.272727 268.074342 
L 166.090909 272.885472 
L 168.909091 276.978038 
L 171.727273 280.520996 
L 174.545455 283.699768 
L 180.181818 289.726919 
L 183 292.937273 
L 185.818182 296.485621 
L 188.636364 300.482136 
L 191.454545 304.984734 
L 194.272727 309.987726 
L 197.090909 315.416769 
L 208.363636 338.098696 
L 211.181818 343.061751 
L 214 347.447826 
L 216.818182 351.189546 
L 219.636364 354.263048 
L 222.454545 356.677657 
L 225.272727 358.464654 
L 228.090909 359.667374 
L 230.909091 360.33357 
L 233.727273 360.510075 
L 236.545455 360.239402 
L 239.363636 359.557775 
L 242.181818 358.494138 
L 245 357.069771 
L 247.818182 355.298261 
L 250.636364 353.185641 
L 253.454545 350.73059 
L 256.272727 347.924621 
L 259.090909 344.752196 
L 261.909091 341.190758 
L 264.727273 337.210654 
L 267.545455 332.774927 
L 270.363636 327.838995 
L 273.181818 322.350235 
L 276 316.247556 
L 278.818182 309.461133 
L 281.636364 301.912673 
L 284.454545 293.516861 
L 287.272727 284.185118 
L 290.090909 273.83341 
L 292.909091 262.396433 
L 295.727273 249.850523 
L 298.545455 236.245965 
L 301.363636 221.744672 
L 309.818182 176.61163 
L 312.636364 162.831967 
L 315.454545 150.629134 
L 318.272727 140.433999 
L 321.090909 132.532973 
L 323.909091 127.07699 
L 326.727273 124.105052 
L 329.545455 123.563539 
L 332.363636 125.311903 
L 335.181818 129.115707 
L 338 134.636558 
L 340.818182 141.433521 
L 349.272727 164.239062 
L 352.090909 171.014465 
L 354.909091 176.788579 
L 357.727273 181.380943 
L 360.545455 184.707712 
L 363.363636 186.756155 
L 366.181818 187.561836 
L 369 187.191987 
L 371.818182 185.735002 
L 374.636364 183.294355 
L 377.454545 179.984969 
L 380.272727 175.930403 
L 383.090909 171.259901 
L 385.909091 166.104964 
L 391.545455 154.856994 
L 400 137.3892 
L 402.818182 131.806977 
L 405.636364 126.481569 
L 408.454545 121.480407 
L 411.272727 116.861591 
L 414.090909 112.673743 
L 416.909091 108.955544 
L 419.727273 105.735135 
L 422.545455 103.029553 
L 425.363636 100.844409 
L 428.181818 99.173934 
L 431 98.001471 
L 433.818182 97.30042 
L 436.636364 97.035611 
L 439.454545 97.165005 
L 442.272727 97.64163 
L 445.090909 98.415613 
L 447.909091 99.43619 
L 450.727273 100.653562 
L 456.363636 103.493529 
L 476.090909 114.188068 
L 481.727273 116.848004 
L 487.363636 119.247065 
L 493 121.401265 
L 498.636364 123.345113 
L 507.090909 125.966637 
L 521.181818 129.968879 
L 543.727273 136.234532 
L 549.363636 137.392315 
L 552.181818 137.771654 
L 555 137.959399 
L 557.818182 137.902072 
L 560.636364 137.537958 
L 563.454545 136.796744 
L 566.272727 135.599523 
L 569.090909 133.859573 
L 571.909091 131.484672 
L 574.727273 128.382195 
L 577.545455 124.468811 
L 580.363636 119.687102 
L 583.181818 114.031101 
L 586 107.580536 
L 594.454545 86.23543 
L 597.272727 80.07118 
L 600.090909 75.370336 
L 602.909091 72.645795 
L 605.727273 72.233255 
L 608.545455 74.244731 
L 611.363636 78.561517 
L 614.181818 84.863547 
L 617 92.692885 
L 619.818182 101.542991 
L 622.636364 110.95209 
L 622.636364 110.95209 
" clip-path="url(#pf3c90fa30d)" style="fill: none; stroke: #17becf; stroke-opacity: 0.5; stroke-width: 1.5; stroke-linecap: square"/>
   </g>
   <g id="line2d_27">
    <path d="M 115.363636 104.304605 
L 132.272727 163.596477 
L 137.909091 184.257038 
L 149.181818 226.891267 
L 152 236.745078 
L 154.818182 245.83124 
L 157.636364 254.01059 
L 160.454545 261.226446 
L 163.272727 267.501476 
L 166.090909 272.924223 
L 168.909091 277.63203 
L 171.727273 281.794746 
L 177.363636 289.245483 
L 180.181818 292.919596 
L 183 296.79798 
L 185.818182 301.026092 
L 188.636364 305.705307 
L 191.454545 310.878477 
L 194.272727 316.51921 
L 199.909091 328.748986 
L 205.545455 341.005098 
L 208.363636 346.640793 
L 211.181818 351.735867 
L 214 356.193028 
L 216.818182 359.96515 
L 219.636364 363.046408 
L 222.454545 365.460407 
L 225.272727 367.248625 
L 228.090909 368.460924 
L 230.909091 369.148638 
L 233.727273 369.36 
L 236.545455 369.13739 
L 239.363636 368.515871 
L 242.181818 367.522547 
L 245 366.176425 
L 247.818182 364.488513 
L 250.636364 362.462038 
L 253.454545 360.092658 
L 256.272727 357.368614 
L 259.090909 354.270787 
L 261.909091 350.772622 
L 264.727273 346.839898 
L 267.545455 342.430318 
L 270.363636 337.492914 
L 273.181818 331.967272 
L 276 325.78264 
L 278.818182 318.857097 
L 281.636364 311.097182 
L 284.454545 302.398773 
L 287.272727 292.650662 
L 290.090909 281.743195 
L 292.909091 269.58537 
L 295.727273 256.1341 
L 298.545455 241.437182 
L 301.363636 225.684332 
L 309.818182 176.679575 
L 312.636364 161.92778 
L 315.454545 149.028834 
L 318.272727 138.411867 
L 321.090909 130.326447 
L 323.909091 124.872339 
L 326.727273 122.03796 
L 329.545455 121.725824 
L 332.363636 123.757952 
L 335.181818 127.865959 
L 338 133.678744 
L 340.818182 140.724591 
L 349.272727 163.824401 
L 352.090909 170.541851 
L 354.909091 176.202754 
L 357.727273 180.646286 
L 360.545455 183.806551 
L 363.363636 185.685386 
L 366.181818 186.329279 
L 369 185.8132 
L 371.818182 184.23074 
L 374.636364 181.688594 
L 377.454545 178.303363 
L 380.272727 174.199061 
L 383.090909 169.504417 
L 385.909091 164.349676 
L 391.545455 153.167645 
L 400 135.927604 
L 402.818182 130.445011 
L 405.636364 125.22607 
L 408.454545 120.334897 
L 411.272727 115.82617 
L 414.090909 111.745123 
L 416.909091 108.12726 
L 419.727273 104.997926 
L 422.545455 102.371891 
L 425.363636 100.253116 
L 428.181818 98.634823 
L 431 97.499967 
L 433.818182 96.8221 
L 436.636364 96.566646 
L 439.454545 96.692493 
L 442.272727 97.153815 
L 445.090909 97.902011 
L 447.909091 98.887639 
L 450.727273 100.062207 
L 456.363636 102.797929 
L 473.272727 111.676943 
L 478.909091 114.327243 
L 484.545455 116.721672 
L 490.181818 118.864916 
L 495.818182 120.784814 
L 504.272727 123.338364 
L 515.545455 126.393409 
L 543.727273 133.751296 
L 549.363636 134.804321 
L 552.181818 135.131389 
L 555 135.267792 
L 557.818182 135.160884 
L 560.636364 134.749901 
L 563.454545 133.965576 
L 566.272727 132.730067 
L 569.090909 130.957612 
L 571.909091 128.55661 
L 574.727273 125.434303 
L 577.545455 121.505788 
L 580.363636 116.709585 
L 583.181818 111.031796 
L 586 104.539018 
L 591.636364 89.990483 
L 594.454545 82.741968 
L 597.272727 76.25311 
L 600.090909 71.131383 
L 602.909091 67.909316 
L 605.727273 66.96 
L 608.545455 68.446507 
L 611.363636 72.307553 
L 614.181818 78.275859 
L 617 85.928444 
L 619.818182 94.765831 
L 622.636364 104.304605 
L 622.636364 104.304605 
" clip-path="url(#pf3c90fa30d)" style="fill: none; stroke: #1f77b4; stroke-opacity: 0.5; stroke-width: 1.5; stroke-linecap: square"/>
   </g>
   <g id="patch_3">
    <path d="M 90 384.48 
L 90 51.84 
" style="fill: none; stroke: #000000; stroke-width: 0.8; stroke-linejoin: miter; stroke-linecap: square"/>
   </g>
   <g id="patch_4">
    <path d="M 648 384.48 
L 648 51.84 
" style="fill: none; stroke: #000000; stroke-width: 0.8; stroke-linejoin: miter; stroke-linecap: square"/>
   </g>
   <g id="patch_5">
    <path d="M 90 384.48 
L 648 384.48 
" style="fill: none; stroke: #000000; stroke-width: 0.8; stroke-linejoin: miter; stroke-linecap: square"/>
   </g>
   <g id="patch_6">
    <path d="M 90 51.84 
L 648 51.84 
" style="fill: none; stroke: #000000; stroke-width: 0.8; stroke-linejoin: miter; stroke-linecap: square"/>
   </g>
   <g id="text_19">
    <!-- Variation of PhiDP with pitch -->
    <g transform="translate(283.986562 45.84) scale(0.12 -0.12)">
     <defs>
      <path id="DejaVuSans-56" d="M 1831 0 
L 50 4666 
L 709 4666 
L 2188 738 
L 3669 4666 
L 4325 4666 
L 2547 0 
L 1831 0 
z
" transform="scale(0.015625)"/>
      <path id="DejaVuSans-6f" d="M 1959 3097 
Q 1497 3097 1228 2736 
Q 959 2375 959 1747 
Q 959 1119 1226 758 
Q 1494 397 1959 397 
Q 2419 397 2687 759 
Q 2956 1122 2956 1747 
Q 2956 2369 2687 2733 
Q 2419 3097 1959 3097 
z
M 1959 3584 
Q 2709 3584 3137 3096 
Q 3566 2609 3566 1747 
Q 3566 888 3137 398 
Q 2709 -91 1959 -91 
Q 1206 -91 779 398 
Q 353 888 353 1747 
Q 353 2609 779 3096 
Q 1206 3584 1959 3584 
z
" transform="scale(0.015625)"/>
      <path id="DejaVuSans-77" d="M 269 3500 
L 844 3500 
L 1563 769 
L 2278 3500 
L 2956 3500 
L 3675 769 
L 4391 3500 
L 4966 3500 
L 4050 0 
L 3372 0 
L 2619 2869 
L 1863 0 
L 1184 0 
L 269 3500 
z
" transform="scale(0.015625)"/>
      <path id="DejaVuSans-63" d="M 3122 3366 
L 3122 2828 
Q 2878 2963 2633 3030 
Q 2388 3097 2138 3097 
Q 1578 3097 1268 2742 
Q 959 2388 959 1747 
Q 959 1106 1268 751 
Q 1578 397 2138 397 
Q 2388 397 2633 464 
Q 2878 531 3122 666 
L 3122 134 
Q 2881 22 2623 -34 
Q 2366 -91 2075 -91 
Q 1284 -91 818 406 
Q 353 903 353 1747 
Q 353 2603 823 3093 
Q 1294 3584 2113 3584 
Q 2378 3584 2631 3529 
Q 2884 3475 3122 3366 
z
" transform="scale(0.015625)"/>
     </defs>
     <use xlink:href="#DejaVuSans-56"/>
     <use xlink:href="#DejaVuSans-61" transform="translate(60.658203 0)"/>
     <use xlink:href="#DejaVuSans-72" transform="translate(121.9375 0)"/>
     <use xlink:href="#DejaVuSans-69" transform="translate(163.050781 0)"/>
     <use xlink:href="#DejaVuSans-61" transform="translate(190.833984 0)"/>
     <use xlink:href="#DejaVuSans-74" transform="translate(252.113281 0)"/>
     <use xlink:href="#DejaVuSans-69" transform="translate(291.322266 0)"/>
     <use xlink:href="#DejaVuSans-6f" transform="translate(319.105469 0)"/>
     <use xlink:href="#DejaVuSans-6e" transform="translate(380.287109 0)"/>
     <use xlink:href="#DejaVuSans-20" transform="translate(443.666016 0)"/>
     <use xlink:href="#DejaVuSans-6f" transform="translate(475.453125 0)"/>
     <use xlink:href="#DejaVuSans-66" transform="translate(536.634766 0)"/>
     <use xlink:href="#DejaVuSans-20" transform="translate(571.839844 0)"/>
     <use xlink:href="#DejaVuSans-50" transform="translate(603.626953 0)"/>
     <use xlink:href="#DejaVuSans-68" transform="translate(663.929688 0)"/>
     <use xlink:href="#DejaVuSans-69" transform="translate(727.308594 0)"/>
     <use xlink:href="#DejaVuSans-44" transform="translate(755.091797 0)"/>
     <use xlink:href="#DejaVuSans-50" transform="translate(832.09375 0)"/>
     <use xlink:href="#DejaVuSans-20" transform="translate(892.396484 0)"/>
     <use xlink:href="#DejaVuSans-77" transform="translate(924.183594 0)"/>
     <use xlink:href="#DejaVuSans-69" transform="translate(1005.970703 0)"/>
     <use xlink:href="#DejaVuSans-74" transform="translate(1033.753906 0)"/>
     <use xlink:href="#DejaVuSans-68" transform="translate(1072.962891 0)"/>
     <use xlink:href="#DejaVuSans-20" transform="translate(1136.341797 0)"/>
     <use xlink:href="#DejaVuSans-70" transform="translate(1168.128906 0)"/>
     <use xlink:href="#DejaVuSans-69" transform="translate(1231.605469 0)"/>
     <use xlink:href="#DejaVuSans-74" transform="translate(1259.388672 0)"/>
     <use xlink:href="#DejaVuSans-63" transform="translate(1298.597656 0)"/>
     <use xlink:href="#DejaVuSans-68" transform="translate(1353.578125 0)"/>
    </g>
   </g>
   <g id="legend_1">
    <g id="patch_7">
     <path d="M 552.845312 379.48 
L 641 379.48 
Q 643 379.48 643 377.48 
L 643 217.020625 
Q 643 215.020625 641 215.020625 
L 552.845312 215.020625 
Q 550.845312 215.020625 550.845312 217.020625 
L 550.845312 377.48 
Q 550.845312 379.48 552.845312 379.48 
z
" style="fill: #ffffff; opacity: 0.8; stroke: #cccccc; stroke-linejoin: miter"/>
    </g>
    <g id="line2d_28">
     <path d="M 554.845312 223.119063 
L 564.845312 223.119063 
L 574.845312 223.119063 
" style="fill: none; stroke: #1f77b4; stroke-opacity: 0.5; stroke-width: 1.5; stroke-linecap: square"/>
    </g>
    <g id="text_20">
     <!-- 0 degrees -->
     <g transform="translate(582.845312 226.619063) scale(0.1 -0.1)">
      <use xlink:href="#DejaVuSans-30"/>
      <use xlink:href="#DejaVuSans-20" transform="translate(63.623047 0)"/>
      <use xlink:href="#DejaVuSans-64" transform="translate(95.410156 0)"/>
      <use xlink:href="#DejaVuSans-65" transform="translate(158.886719 0)"/>
      <use xlink:href="#DejaVuSans-67" transform="translate(220.410156 0)"/>
      <use xlink:href="#DejaVuSans-72" transform="translate(283.886719 0)"/>
      <use xlink:href="#DejaVuSans-65" transform="translate(322.75 0)"/>
      <use xlink:href="#DejaVuSans-65" transform="translate(384.273438 0)"/>
      <use xlink:href="#DejaVuSans-73" transform="translate(445.796875 0)"/>
     </g>
    </g>
    <g id="line2d_29">
     <path d="M 554.845312 237.797188 
L 564.845312 237.797188 
L 574.845312 237.797188 
" style="fill: none; stroke: #ff7f0e; stroke-opacity: 0.5; stroke-width: 1.5; stroke-linecap: square"/>
    </g>
    <g id="text_21">
     <!-- 1 degrees -->
     <g transform="translate(582.845312 241.297188) scale(0.1 -0.1)">
      <use xlink:href="#DejaVuSans-31"/>
      <use xlink:href="#DejaVuSans-20" transform="translate(63.623047 0)"/>
      <use xlink:href="#DejaVuSans-64" transform="translate(95.410156 0)"/>
      <use xlink:href="#DejaVuSans-65" transform="translate(158.886719 0)"/>
      <use xlink:href="#DejaVuSans-67" transform="translate(220.410156 0)"/>
      <use xlink:href="#DejaVuSans-72" transform="translate(283.886719 0)"/>
      <use xlink:href="#DejaVuSans-65" transform="translate(322.75 0)"/>
      <use xlink:href="#DejaVuSans-65" transform="translate(384.273438 0)"/>
      <use xlink:href="#DejaVuSans-73" transform="translate(445.796875 0)"/>
     </g>
    </g>
    <g id="line2d_30">
     <path d="M 554.845312 252.475313 
L 564.845312 252.475313 
L 574.845312 252.475313 
" style="fill: none; stroke: #2ca02c; stroke-opacity: 0.5; stroke-width: 1.5; stroke-linecap: square"/>
    </g>
    <g id="text_22">
     <!-- 2 degrees -->
     <g transform="translate(582.845312 255.975313) scale(0.1 -0.1)">
      <use xlink:href="#DejaVuSans-32"/>
      <use xlink:href="#DejaVuSans-20" transform="translate(63.623047 0)"/>
      <use xlink:href="#DejaVuSans-64" transform="translate(95.410156 0)"/>
      <use xlink:href="#DejaVuSans-65" transform="translate(158.886719 0)"/>
      <use xlink:href="#DejaVuSans-67" transform="translate(220.410156 0)"/>
      <use xlink:href="#DejaVuSans-72" transform="translate(283.886719 0)"/>
      <use xlink:href="#DejaVuSans-65" transform="translate(322.75 0)"/>
      <use xlink:href="#DejaVuSans-65" transform="translate(384.273438 0)"/>
      <use xlink:href="#DejaVuSans-73" transform="translate(445.796875 0)"/>
     </g>
    </g>
    <g id="line2d_31">
     <path d="M 554.845312 267.153438 
L 564.845312 267.153438 
L 574.845312 267.153438 
" style="fill: none; stroke: #d62728; stroke-opacity: 0.5; stroke-width: 1.5; stroke-linecap: square"/>
    </g>
    <g id="text_23">
     <!-- 3 degrees -->
     <g transform="translate(582.845312 270.653438) scale(0.1 -0.1)">
      <use xlink:href="#DejaVuSans-33"/>
      <use xlink:href="#DejaVuSans-20" transform="translate(63.623047 0)"/>
      <use xlink:href="#DejaVuSans-64" transform="translate(95.410156 0)"/>
      <use xlink:href="#DejaVuSans-65" transform="translate(158.886719 0)"/>
      <use xlink:href="#DejaVuSans-67" transform="translate(220.410156 0)"/>
      <use xlink:href="#DejaVuSans-72" transform="translate(283.886719 0)"/>
      <use xlink:href="#DejaVuSans-65" transform="translate(322.75 0)"/>
      <use xlink:href="#DejaVuSans-65" transform="translate(384.273438 0)"/>
      <use xlink:href="#DejaVuSans-73" transform="translate(445.796875 0)"/>
     </g>
    </g>
    <g id="line2d_32">
     <path d="M 554.845312 281.831563 
L 564.845312 281.831563 
L 574.845312 281.831563 
" style="fill: none; stroke: #9467bd; stroke-opacity: 0.5; stroke-width: 1.5; stroke-linecap: square"/>
    </g>
    <g id="text_24">
     <!-- 4 degrees -->
     <g transform="translate(582.845312 285.331563) scale(0.1 -0.1)">
      <use xlink:href="#DejaVuSans-34"/>
      <use xlink:href="#DejaVuSans-20" transform="translate(63.623047 0)"/>
      <use xlink:href="#DejaVuSans-64" transform="translate(95.410156 0)"/>
      <use xlink:href="#DejaVuSans-65" transform="translate(158.886719 0)"/>
      <use xlink:href="#DejaVuSans-67" transform="translate(220.410156 0)"/>
      <use xlink:href="#DejaVuSans-72" transform="translate(283.886719 0)"/>
      <use xlink:href="#DejaVuSans-65" transform="translate(322.75 0)"/>
      <use xlink:href="#DejaVuSans-65" transform="translate(384.273438 0)"/>
      <use xlink:href="#DejaVuSans-73" transform="translate(445.796875 0)"/>
     </g>
    </g>
    <g id="line2d_33">
     <path d="M 554.845312 296.509688 
L 564.845312 296.509688 
L 574.845312 296.509688 
" style="fill: none; stroke: #8c564b; stroke-opacity: 0.5; stroke-width: 1.5; stroke-linecap: square"/>
    </g>
    <g id="text_25">
     <!-- 5 degrees -->
     <g transform="translate(582.845312 300.009688) scale(0.1 -0.1)">
      <use xlink:href="#DejaVuSans-35"/>
      <use xlink:href="#DejaVuSans-20" transform="translate(63.623047 0)"/>
      <use xlink:href="#DejaVuSans-64" transform="translate(95.410156 0)"/>
      <use xlink:href="#DejaVuSans-65" transform="translate(158.886719 0)"/>
      <use xlink:href="#DejaVuSans-67" transform="translate(220.410156 0)"/>
      <use xlink:href="#DejaVuSans-72" transform="translate(283.886719 0)"/>
      <use xlink:href="#DejaVuSans-65" transform="translate(322.75 0)"/>
      <use xlink:href="#DejaVuSans-65" transform="translate(384.273438 0)"/>
      <use xlink:href="#DejaVuSans-73" transform="translate(445.796875 0)"/>
     </g>
    </g>
    <g id="line2d_34">
     <path d="M 554.845312 311.187813 
L 564.845312 311.187813 
L 574.845312 311.187813 
" style="fill: none; stroke: #e377c2; stroke-opacity: 0.5; stroke-width: 1.5; stroke-linecap: square"/>
    </g>
    <g id="text_26">
     <!-- 6 degrees -->
     <g transform="translate(582.845312 314.687813) scale(0.1 -0.1)">
      <use xlink:href="#DejaVuSans-36"/>
      <use xlink:href="#DejaVuSans-20" transform="translate(63.623047 0)"/>
      <use xlink:href="#DejaVuSans-64" transform="translate(95.410156 0)"/>
      <use xlink:href="#DejaVuSans-65" transform="translate(158.886719 0)"/>
      <use xlink:href="#DejaVuSans-67" transform="translate(220.410156 0)"/>
      <use xlink:href="#DejaVuSans-72" transform="translate(283.886719 0)"/>
      <use xlink:href="#DejaVuSans-65" transform="translate(322.75 0)"/>
      <use xlink:href="#DejaVuSans-65" transform="translate(384.273438 0)"/>
      <use xlink:href="#DejaVuSans-73" transform="translate(445.796875 0)"/>
     </g>
    </g>
    <g id="line2d_35">
     <path d="M 554.845312 325.865938 
L 564.845312 325.865938 
L 574.845312 325.865938 
" style="fill: none; stroke: #7f7f7f; stroke-opacity: 0.5; stroke-width: 1.5; stroke-linecap: square"/>
    </g>
    <g id="text_27">
     <!-- 7 degrees -->
     <g transform="translate(582.845312 329.365938) scale(0.1 -0.1)">
      <defs>
       <path id="DejaVuSans-37" d="M 525 4666 
L 3525 4666 
L 3525 4397 
L 1831 0 
L 1172 0 
L 2766 4134 
L 525 4134 
L 525 4666 
z
" transform="scale(0.015625)"/>
      </defs>
      <use xlink:href="#DejaVuSans-37"/>
      <use xlink:href="#DejaVuSans-20" transform="translate(63.623047 0)"/>
      <use xlink:href="#DejaVuSans-64" transform="translate(95.410156 0)"/>
      <use xlink:href="#DejaVuSans-65" transform="translate(158.886719 0)"/>
      <use xlink:href="#DejaVuSans-67" transform="translate(220.410156 0)"/>
      <use xlink:href="#DejaVuSans-72" transform="translate(283.886719 0)"/>
      <use xlink:href="#DejaVuSans-65" transform="translate(322.75 0)"/>
      <use xlink:href="#DejaVuSans-65" transform="translate(384.273438 0)"/>
      <use xlink:href="#DejaVuSans-73" transform="translate(445.796875 0)"/>
     </g>
    </g>
    <g id="line2d_36">
     <path d="M 554.845312 340.544063 
L 564.845312 340.544063 
L 574.845312 340.544063 
" style="fill: none; stroke: #bcbd22; stroke-opacity: 0.5; stroke-width: 1.5; stroke-linecap: square"/>
    </g>
    <g id="text_28">
     <!-- 8 degrees -->
     <g transform="translate(582.845312 344.044063) scale(0.1 -0.1)">
      <use xlink:href="#DejaVuSans-38"/>
      <use xlink:href="#DejaVuSans-20" transform="translate(63.623047 0)"/>
      <use xlink:href="#DejaVuSans-64" transform="translate(95.410156 0)"/>
      <use xlink:href="#DejaVuSans-65" transform="translate(158.886719 0)"/>
      <use xlink:href="#DejaVuSans-67" transform="translate(220.410156 0)"/>
      <use xlink:href="#DejaVuSans-72" transform="translate(283.886719 0)"/>
      <use xlink:href="#DejaVuSans-65" transform="translate(322.75 0)"/>
      <use xlink:href="#DejaVuSans-65" transform="translate(384.273438 0)"/>
      <use xlink:href="#DejaVuSans-73" transform="translate(445.796875 0)"/>
     </g>
    </g>
    <g id="line2d_37">
     <path d="M 554.845312 355.222188 
L 564.845312 355.222188 
L 574.845312 355.222188 
" style="fill: none; stroke: #17becf; stroke-opacity: 0.5; stroke-width: 1.5; stroke-linecap: square"/>
    </g>
    <g id="text_29">
     <!-- 9 degrees -->
     <g transform="translate(582.845312 358.722188) scale(0.1 -0.1)">
      <defs>
       <path id="DejaVuSans-39" d="M 703 97 
L 703 672 
Q 941 559 1184 500 
Q 1428 441 1663 441 
Q 2288 441 2617 861 
Q 2947 1281 2994 2138 
Q 2813 1869 2534 1725 
Q 2256 1581 1919 1581 
Q 1219 1581 811 2004 
Q 403 2428 403 3163 
Q 403 3881 828 4315 
Q 1253 4750 1959 4750 
Q 2769 4750 3195 4129 
Q 3622 3509 3622 2328 
Q 3622 1225 3098 567 
Q 2575 -91 1691 -91 
Q 1453 -91 1209 -44 
Q 966 3 703 97 
z
M 1959 2075 
Q 2384 2075 2632 2365 
Q 2881 2656 2881 3163 
Q 2881 3666 2632 3958 
Q 2384 4250 1959 4250 
Q 1534 4250 1286 3958 
Q 1038 3666 1038 3163 
Q 1038 2656 1286 2365 
Q 1534 2075 1959 2075 
z
" transform="scale(0.015625)"/>
      </defs>
      <use xlink:href="#DejaVuSans-39"/>
      <use xlink:href="#DejaVuSans-20" transform="translate(63.623047 0)"/>
      <use xlink:href="#DejaVuSans-64" transform="translate(95.410156 0)"/>
      <use xlink:href="#DejaVuSans-65" transform="translate(158.886719 0)"/>
      <use xlink:href="#DejaVuSans-67" transform="translate(220.410156 0)"/>
      <use xlink:href="#DejaVuSans-72" transform="translate(283.886719 0)"/>
      <use xlink:href="#DejaVuSans-65" transform="translate(322.75 0)"/>
      <use xlink:href="#DejaVuSans-65" transform="translate(384.273438 0)"/>
      <use xlink:href="#DejaVuSans-73" transform="translate(445.796875 0)"/>
     </g>
    </g>
    <g id="line2d_38">
     <path d="M 554.845312 369.900313 
L 564.845312 369.900313 
L 574.845312 369.900313 
" style="fill: none; stroke: #1f77b4; stroke-opacity: 0.5; stroke-width: 1.5; stroke-linecap: square"/>
    </g>
    <g id="text_30">
     <!-- 10 degrees -->
     <g transform="translate(582.845312 373.400313) scale(0.1 -0.1)">
      <use xlink:href="#DejaVuSans-31"/>
      <use xlink:href="#DejaVuSans-30" transform="translate(63.623047 0)"/>
      <use xlink:href="#DejaVuSans-20" transform="translate(127.246094 0)"/>
      <use xlink:href="#DejaVuSans-64" transform="translate(159.033203 0)"/>
      <use xlink:href="#DejaVuSans-65" transform="translate(222.509766 0)"/>
      <use xlink:href="#DejaVuSans-67" transform="translate(284.033203 0)"/>
      <use xlink:href="#DejaVuSans-72" transform="translate(347.509766 0)"/>
      <use xlink:href="#DejaVuSans-65" transform="translate(386.373047 0)"/>
      <use xlink:href="#DejaVuSans-65" transform="translate(447.896484 0)"/>
      <use xlink:href="#DejaVuSans-73" transform="translate(509.419922 0)"/>
     </g>
    </g>
   </g>
  </g>
 </g>
 <defs>
  <clipPath id="pf3c90fa30d">
   <rect x="90" y="51.84" width="558" height="332.64"/>
  </clipPath>
 </defs>
</svg>
